<svg xmlns="http://www.w3.org/2000/svg" xmlns:xlink="http://www.w3.org/1999/xlink" width="50.622mm" height="75.082mm" viewBox="3990 2990 199.3 295.6"><title/><style type="text/css">
*[layerid="1"] {stroke:#FF0000;fill:#FF0000;}
*[layerid="2"] {stroke:#0000FF;fill:#0000FF;}
*[layerid="3"] {stroke:#FFFF00;fill:#FFFF00;}
*[layerid="4"] {stroke:#808000;fill:#808000;}
*[layerid="5"] {stroke:#808080;fill:#808080;}
*[layerid="6"] {stroke:#800000;fill:#800000;}
*[layerid="7"] {stroke:#800080;fill:#800080;}
*[layerid="8"] {stroke:#AA00FF;fill:#AA00FF;}
*[layerid="9"] {stroke:#6464FF;fill:#6464FF;}
*[layerid="10"] {stroke:#FF00FF;fill:#FF00FF;}
*[layerid="11"] {stroke:#C0C0C0;fill:#C0C0C0;}
*[layerid="12"] {stroke:#FFFFFF;fill:#FFFFFF;}
*[layerid="13"] {stroke:#33CC99;fill:#33CC99;}
*[layerid="14"] {stroke:#5555FF;fill:#5555FF;}
*[layerid="15"] {stroke:#F022F0;fill:#F022F0;}
*[layerid="19"] {stroke:#66CCFF;fill:#66CCFF;}
*[layerid="21"] {stroke:#800000;fill:#800000;}
*[layerid="22"] {stroke:#008000;fill:#008000;}
*[layerid="23"] {stroke:#00FF00;fill:#00FF00;}
*[layerid="24"] {stroke:#000080;fill:#000080;}
*[layerid="25"] {stroke:#70DBFA;fill:#70DBFA;}
*[layerid="26"] {stroke:#00CC66;fill:#00CC66;}
*[layerid="27"] {stroke:#9966FF;fill:#9966FF;}
*[layerid="28"] {stroke:#800080;fill:#800080;}
*[layerid="29"] {stroke:#008080;fill:#008080;}
*[layerid="30"] {stroke:#15935F;fill:#15935F;}
*[layerid="31"] {stroke:#000080;fill:#000080;}
*[layerid="32"] {stroke:#00B400;fill:#00B400;}
*[layerid="33"] {stroke:#2E4756;fill:#2E4756;}
*[layerid="34"] {stroke:#99842F;fill:#99842F;}
*[layerid="35"] {stroke:#FFFFAA;fill:#FFFFAA;}
*[layerid="36"] {stroke:#99842F;fill:#99842F;}
*[layerid="37"] {stroke:#2E4756;fill:#2E4756;}
*[layerid="38"] {stroke:#3535FF;fill:#3535FF;}
*[layerid="39"] {stroke:#8000BC;fill:#8000BC;}
*[layerid="40"] {stroke:#43AE5F;fill:#43AE5F;}
*[layerid="41"] {stroke:#C3ECCE;fill:#C3ECCE;}
*[layerid="42"] {stroke:#728978;fill:#728978;}
*[layerid="43"] {stroke:#39503F;fill:#39503F;}
*[layerid="44"] {stroke:#0C715D;fill:#0C715D;}
*[layerid="45"] {stroke:#5A8A80;fill:#5A8A80;}
*[layerid="46"] {stroke:#2B937E;fill:#2B937E;}
*[layerid="47"] {stroke:#23999D;fill:#23999D;}
*[layerid="48"] {stroke:#45B4E3;fill:#45B4E3;}
*[layerid="49"] {stroke:#215DA1;fill:#215DA1;}
*[layerid="50"] {stroke:#4564D7;fill:#4564D7;}
*[layerid="51"] {stroke:#6969E9;fill:#6969E9;}
*[layerid="52"] {stroke:#9069E9;fill:#9069E9;}
*[layerid="99"] {stroke:#00CCCC;fill:#00CCCC;}
*[layerid="100"] {stroke:#CC9999;fill:#CC9999;}
*[layerid="101"] {stroke:#66FFCC;fill:#66FFCC;}
*[layerid="Hole"] {stroke:#222222;fill:#222222;}
*[layerid="DRCError"] {stroke:#FFFFFF;fill:#FFFFFF;}
*[fill="none"] {fill: none;}
*[stroke="none"] {stroke: none;}
path, polyline, polygon, line {stroke-linecap:round;}
g[c_partid="part_pad"][layerid="1"] ellipse:not([c_etype="pad_outer"]) {fill:#FF0000;}
g[c_partid="part_pad"][layerid="1"] polygon:not([c_etype="pad_outer"]) {fill:#FF0000;}
g[c_partid="part_pad"][layerid="1"] polyline:not([c_etype="pad_outer"]) {stroke:#FF0000;}
g[c_partid="part_pad"][layerid="2"] ellipse:not([c_etype="pad_outer"]) {fill:#0000FF;}
g[c_partid="part_pad"][layerid="2"] polygon:not([c_etype="pad_outer"]) {fill:#0000FF;}
g[c_partid="part_pad"][layerid="2"] polyline:not([c_etype="pad_outer"]) {stroke:#0000FF;}
g[c_partid="part_pad"][layerid="11"] ellipse:not([c_etype="pad_outer"]) {fill:#C0C0C0;}
g[c_partid="part_pad"][layerid="11"] polygon:not([c_etype="pad_outer"]) {fill:#C0C0C0;}
g[c_partid="part_pad"][layerid="11"] polyline:not([c_etype="pad_outer"]) {stroke:#C0C0C0;}
g[c_partid="part_pad"][layerid="11"] circle {fill:#222222;}
g[c_partid="part_pad"][layerid="11"] &gt; polyline:nth-of-type(2) {stroke:#222222;}
g[c_partid="part_pad"][layerid="11"][c_shape="ELLIPSE"]  polyline:nth-last-of-type(1) {stroke:#222222;}
g[c_partid="part_pad"][layerid="11"][c_shape="RECT"]  polyline:nth-last-of-type(1) {stroke:#222222;}
g[c_partid="part_pad"][layerid="11"][c_shape="POLYGON"]  polyline:nth-last-of-type(1) {stroke:#222222;}
g[c_partid="part_via"] &gt; * + circle, #gCurParts g[c_partid="part_via"] &gt; * + circle {fill:#222222;}
g[c_partid="part_pad"] &gt; polygon[c_etype="pad_outer"], #gCurParts g[c_partid="part_pad"] &gt; polygon[c_etype="pad_outer"] {stroke-linejoin: miter;stroke-miterlimit: 100;}
g[c_partid="part_hole"] &gt; circle {fill: #222222;}path, polyline, polygon {stroke-linejoin:round;}
rect, circle, ellipse, polyline, line, polygon, path {shape-rendering:crispEdges;}
</style>
<rect x="3990" y="2990" width="199.3" height="295.6" fill="#000000" stroke="none"/><polyline points="4035 3180 4065 3210" stroke-width="1" stroke-linecap="round" fill="none" layerid="2" net="S1_3" id="gge2" locked="0"/><polyline points="4091 3211.641 4091.359 3211.641 4104 3199 4104 3135.5 4086.5 3118" stroke-width="1" stroke-linecap="round" fill="none" layerid="2" net="S1_2" id="gge4" locked="0"/><polyline points="4139 3211.641 4123.641 3211.641 4111 3199 4111 3072.5 4086.5 3048" stroke-width="1" stroke-linecap="round" fill="none" layerid="2" net="S2_2" id="gge5" locked="0"/><polyline points="4136.5 3068 4161 3068 4163 3070" stroke-width="3.937" stroke-linecap="round" fill="none" layerid="2" net="U2_14" id="gge6" locked="0"/><polyline points="4136.5 3078 4157.2 3078 4163 3083.8" stroke-width="3.937" stroke-linecap="round" fill="none" layerid="2" net="U2_13" id="gge7" locked="0"/><polyline points="4136.5 3088 4154 3088 4163 3097" stroke-width="3.937" stroke-linecap="round" fill="none" layerid="2" net="U2_12" id="gge8" locked="0"/><polyline points="4136.5 3098 4150.2 3098 4163 3110.8" stroke-width="3.937" stroke-linecap="round" fill="none" layerid="2" net="U2_11" id="gge9" locked="0"/><polyline points="4060.13 3046.32 4070.13 3046.32" stroke-width="1" stroke-linecap="round" fill="none" layerid="1" net="GND" id="gge379" locked="0"/><polyline points="4025.56 3046.32 4025.56 3027.54 4039.1 3014" stroke-width="3.937" stroke-linecap="round" fill="none" layerid="1" net="U2_16" id="gge393" locked="0"/><polyline points="4039.1 3014 4039.1 3014.1 4051 3026 4114.5 3026 4136.5 3048" stroke-width="3.937" stroke-linecap="round" fill="none" layerid="1" net="U2_16" id="gge33" locked="0"/><polyline points="4035 3210 4030 3210 4018 3198" stroke-width="1" stroke-linecap="round" fill="none" layerid="1" net="GND" id="gge14" locked="0"/><polyline points="4018 3192.09 4018 3184 4023 3179 4034 3179 4035 3180" stroke-width="1" stroke-linecap="round" fill="none" layerid="1" net="S1_3" id="gge15" locked="0"/><polyline points="4082 3265 4082 3255 4065 3238" stroke-width="1" stroke-linecap="round" fill="none" layerid="1" net="P1_3" id="gge16" locked="0"/><polyline points="4055 3210 4055 3228 4065 3238" stroke-width="1" stroke-linecap="round" fill="none" layerid="1" net="P1_3" id="gge17" locked="0"/><polyline points="4065 3180 4065 3166" stroke-width="1" stroke-linecap="round" fill="none" layerid="1" net="U1_5" id="gge18" locked="0"/><polyline points="4045 3210 4045 3190 4055 3180" stroke-width="1" stroke-linecap="round" fill="none" layerid="1" net="U1_2" id="gge19" locked="0"/><polyline points="4055 3180 4055 3143 4052 3140" stroke-width="1" stroke-linecap="round" fill="none" layerid="1" net="U1_2" id="gge20" locked="0"/><polyline points="4045 3210 4045 3218 4039 3224 4023 3224 4010 3237" stroke-width="1" stroke-linecap="round" fill="none" layerid="1" net="U1_2" id="gge21" locked="0"/><polyline points="4050 3237 4050 3253 4062 3265" stroke-width="1" stroke-linecap="round" fill="none" layerid="1" net="P1_2" id="gge22" locked="0"/><polyline points="4012 3140 4012 3157 4035 3180" stroke-width="1" stroke-linecap="round" fill="none" layerid="1" net="S1_3" id="gge23" locked="0"/><polyline points="4052 3140 4065 3140" stroke-width="1" stroke-linecap="round" fill="none" layerid="1" net="U1_2" id="gge24" locked="0"/><polyline points="4055 3210 4055 3203 4099 3159 4099 3120.5 4086.5 3108" stroke-width="1" stroke-linecap="round" fill="none" layerid="1" net="P1_3" id="gge25" locked="0"/><polyline points="4086.5 3098 4086.5 3088" stroke-width="1" stroke-linecap="round" fill="none" layerid="1" net="U2_5" id="gge26" locked="0"/><polyline points="4086.5 3078 4086.5 3068" stroke-width="1" stroke-linecap="round" fill="none" layerid="1" net="S1_3" id="gge27" locked="0"/><polyline points="4086.5 3058 4086.5 3068" stroke-width="1" stroke-linecap="round" fill="none" layerid="1" net="S1_3" id="gge28" locked="0"/><polyline points="4086.5 3078 4106.5 3078 4136.5 3108" stroke-width="1" stroke-linecap="round" fill="none" layerid="1" net="S1_3" id="gge29" locked="0"/><polyline points="4136.5 3048 4149.91 3048 4150 3048.09" stroke-width="3.937" stroke-linecap="round" fill="none" layerid="1" net="U2_16" id="gge30" locked="0"/><polyline points="4065 3210 4082.641 3210 4091 3201.641" stroke-width="1" stroke-linecap="round" fill="none" layerid="1" net="S1_3" id="gge31" locked="0"/><polyline points="4091 3201.641 4139 3201.641" stroke-width="1" stroke-linecap="round" fill="none" layerid="1" net="S1_3" id="gge32" locked="0"/><polyline points="4012 3140 4015.56 3136.44 4015.56 3121.14" stroke-width="1" stroke-linecap="round" fill="none" layerid="1" net="S1_3" id="gge376" locked="0"/><polyline points="4015.56 3121.14 4015.57 3121.13 4025.56 3121.13" stroke-width="1" stroke-linecap="round" fill="none" layerid="1" net="S1_3" id="gge377" locked="0"/><polyline points="4015.56 3046.33 4015.57 3046.32 4025.56 3046.32" stroke-width="1" stroke-linecap="round" fill="none" layerid="1" net="U2_16" id="gge378" locked="0"/><polyline points="4060.13 3121.13 4070.13 3121.13" stroke-width="1" stroke-linecap="round" fill="none" layerid="1" net="GND" id="gge380" locked="0"/><polyline points="4025.56 3121.13 4043.37 3121.13 4086.5 3078" stroke-width="1" stroke-linecap="round" fill="none" layerid="1" net="S1_3" id="gge386" locked="0"/><g c_partid="part_pad" c_etype="pinpart" c_origin="4065,3140" layerid="11" number="1" net="U1_2" plated="Y" id="gge39" locked="0" c_rotation="0" c_width="4.7" c_height="4.7" title="U1_2" c_shape="ELLIPSE" pasteexpansion="0" solderexpansion="0.4"><ellipse c_etype="pad_shell" cx="4065" cy="3140" rx="2.35" ry="2.35" layerid="11" stroke-width="0"/><circle c_etype="pad_hole" cx="4065" cy="3140" r="1.4" layerid="11" stroke-width="0"/></g><g c_partid="part_pad" c_etype="pinpart" c_origin="4075,3140" layerid="11" number="2" net="GND" plated="Y" id="gge40" locked="0" c_rotation="0" c_width="4.7" c_height="4.7" title="GND" c_shape="ELLIPSE" pasteexpansion="0" solderexpansion="0.4"><ellipse c_etype="pad_shell" cx="4075" cy="3140" rx="2.35" ry="2.35" layerid="11" stroke-width="0"/><circle c_etype="pad_hole" cx="4075" cy="3140" r="1.4" layerid="11" stroke-width="0"/></g><g c_partid="part_pad" c_etype="pinpart" c_origin="4065,3166" layerid="11" number="1" net="U1_5" plated="Y" id="gge45" locked="0" c_rotation="0" c_width="4.7" c_height="4.7" title="U1_5" c_shape="ELLIPSE" pasteexpansion="0" solderexpansion="0.4"><ellipse c_etype="pad_shell" cx="4065" cy="3166" rx="2.35" ry="2.35" layerid="11" stroke-width="0"/><circle c_etype="pad_hole" cx="4065" cy="3166" r="1.4" layerid="11" stroke-width="0"/></g><g c_partid="part_pad" c_etype="pinpart" c_origin="4075,3166" layerid="11" number="2" net="GND" plated="Y" id="gge46" locked="0" c_rotation="0" c_width="4.7" c_height="4.7" title="GND" c_shape="ELLIPSE" pasteexpansion="0" solderexpansion="0.4"><ellipse c_etype="pad_shell" cx="4075" cy="3166" rx="2.35" ry="2.35" layerid="11" stroke-width="0"/><circle c_etype="pad_hole" cx="4075" cy="3166" r="1.4" layerid="11" stroke-width="0"/></g><g c_partid="part_pad" c_etype="pinpart" c_origin="4163,3070" layerid="11" number="1" net="U2_14" plated="Y" id="gge55" locked="0" c_rotation="270" c_width="7.28" c_height="7.28" title="U2_14" c_shape="RECT" pasteexpansion="0" solderexpansion="0.4"><polygon c_etype="pad_shell" points="4166.64 3066.36 4166.64 3073.64 4159.36 3073.64 4159.36 3066.36" layerid="11" stroke-width="0"/><circle c_etype="pad_hole" cx="4163" cy="3070" r="1.97" layerid="11" stroke-width="0"/></g><g c_partid="part_pad" c_etype="pinpart" c_origin="4163,3083.8" layerid="11" number="2" net="U2_13" plated="Y" id="gge56" locked="0" c_rotation="270" c_width="7.28" c_height="7.28" title="U2_13" c_shape="ELLIPSE" pasteexpansion="0" solderexpansion="0.4"><ellipse c_etype="pad_shell" cx="4163" cy="3083.8" rx="3.64" ry="3.64" layerid="11" stroke-width="0"/><circle c_etype="pad_hole" cx="4163" cy="3083.8" r="1.97" layerid="11" stroke-width="0"/></g><g c_partid="part_pad" c_etype="pinpart" c_origin="4163,3097" layerid="11" number="1" net="U2_12" plated="Y" id="gge65" locked="0" c_rotation="270" c_width="7.28" c_height="7.28" title="U2_12" c_shape="RECT" pasteexpansion="0" solderexpansion="0.4"><polygon c_etype="pad_shell" points="4166.64 3093.36 4166.64 3100.64 4159.36 3100.64 4159.36 3093.36" layerid="11" stroke-width="0"/><circle c_etype="pad_hole" cx="4163" cy="3097" r="1.97" layerid="11" stroke-width="0"/></g><g c_partid="part_pad" c_etype="pinpart" c_origin="4163,3110.8" layerid="11" number="2" net="U2_11" plated="Y" id="gge66" locked="0" c_rotation="270" c_width="7.28" c_height="7.28" title="U2_11" c_shape="ELLIPSE" pasteexpansion="0" solderexpansion="0.4"><ellipse c_etype="pad_shell" cx="4163" cy="3110.8" rx="3.64" ry="3.64" layerid="11" stroke-width="0"/><circle c_etype="pad_hole" cx="4163" cy="3110.8" r="1.97" layerid="11" stroke-width="0"/></g><g c_partid="part_pad" c_etype="pinpart" c_origin="4082,3265" layerid="11" number="3" net="P1_3" plated="Y" id="gge71" locked="0" c_rotation="90" c_width="11.811" c_height="11.811" title="P1_3" c_shape="ELLIPSE" pasteexpansion="0" solderexpansion="0.4"><ellipse c_etype="pad_shell" cx="4082" cy="3265" rx="5.9055" ry="5.9055" layerid="11" stroke-width="0"/><circle c_etype="pad_hole" cx="4082" cy="3265" r="2.3622" layerid="11" stroke-width="0"/></g><g c_partid="part_pad" c_etype="pinpart" c_origin="4062,3265" layerid="11" number="2" net="P1_2" plated="Y" id="gge72" locked="0" c_rotation="90" c_width="11.811" c_height="11.811" title="P1_2" c_shape="ELLIPSE" pasteexpansion="0" solderexpansion="0.4"><ellipse c_etype="pad_shell" cx="4062" cy="3265" rx="5.9055" ry="5.9055" layerid="11" stroke-width="0"/><circle c_etype="pad_hole" cx="4062" cy="3265" r="2.3622" layerid="11" stroke-width="0"/></g><g c_partid="part_pad" c_etype="pinpart" c_origin="4042,3265" layerid="11" number="1" net="P1_1" plated="Y" id="gge73" locked="0" c_rotation="90" c_width="11.811" c_height="11.811" title="P1_1" c_shape="ELLIPSE" pasteexpansion="0" solderexpansion="0.4"><ellipse c_etype="pad_shell" cx="4042" cy="3265" rx="5.9055" ry="5.9055" layerid="11" stroke-width="0"/><circle c_etype="pad_hole" cx="4042" cy="3265" r="2.3622" layerid="11" stroke-width="0"/></g><g c_partid="part_pad" c_etype="pinpart" c_origin="4065,3238" layerid="11" number="1" net="P1_3" plated="Y" id="gge79" locked="0" c_rotation="270" c_width="6.2" c_height="6.2" title="P1_3" c_shape="RECT" pasteexpansion="0" solderexpansion="0.4"><polygon c_etype="pad_shell" points="4068.1 3234.9 4068.1 3241.1 4061.9 3241.1 4061.9 3234.9" layerid="11" stroke-width="0"/><circle c_etype="pad_hole" cx="4065" cy="3238" r="1.75" layerid="11" stroke-width="0"/></g><g c_partid="part_pad" c_etype="pinpart" c_origin="4052,3140" layerid="11" number="1" net="U1_2" plated="Y" id="gge87" locked="0" c_rotation="180" c_width="7.4" c_height="7.4" title="U1_2" c_shape="ELLIPSE" pasteexpansion="0" solderexpansion="0.4"><ellipse c_etype="pad_shell" cx="4052" cy="3140" rx="3.7" ry="3.7" layerid="11" stroke-width="0"/><circle c_etype="pad_hole" cx="4052" cy="3140" r="1.77" layerid="11" stroke-width="0"/></g><g c_partid="part_pad" c_etype="pinpart" c_origin="4012,3140" layerid="11" number="2" net="S1_3" plated="Y" id="gge88" locked="0" c_rotation="180" c_width="7.4" c_height="7.4" title="S1_3" c_shape="ELLIPSE" pasteexpansion="0" solderexpansion="0.4"><ellipse c_etype="pad_shell" cx="4012" cy="3140" rx="3.7" ry="3.7" layerid="11" stroke-width="0"/><circle c_etype="pad_hole" cx="4012" cy="3140" r="1.77" layerid="11" stroke-width="0"/></g><g c_partid="part_pad" c_etype="pinpart" c_origin="4050,3237" layerid="11" number="1" net="P1_2" plated="Y" id="gge96" locked="0" c_rotation="180" c_width="7.4" c_height="7.4" title="P1_2" c_shape="ELLIPSE" pasteexpansion="0" solderexpansion="0.4"><ellipse c_etype="pad_shell" cx="4050" cy="3237" rx="3.7" ry="3.7" layerid="11" stroke-width="0"/><circle c_etype="pad_hole" cx="4050" cy="3237" r="1.77" layerid="11" stroke-width="0"/></g><g c_partid="part_pad" c_etype="pinpart" c_origin="4010,3237" layerid="11" number="2" net="U1_2" plated="Y" id="gge97" locked="0" c_rotation="180" c_width="7.4" c_height="7.4" title="U1_2" c_shape="ELLIPSE" pasteexpansion="0" solderexpansion="0.4"><ellipse c_etype="pad_shell" cx="4010" cy="3237" rx="3.7" ry="3.7" layerid="11" stroke-width="0"/><circle c_etype="pad_hole" cx="4010" cy="3237" r="1.77" layerid="11" stroke-width="0"/></g><g c_partid="part_pad" c_etype="pinpart" c_origin="4091,3211.641" layerid="11" number="2" net="S1_2" plated="Y" id="gge108" locked="0" c_rotation="90" c_width="6" c_height="6" title="S1_2" c_shape="ELLIPSE" pasteexpansion="0" solderexpansion="0.4"><ellipse c_etype="pad_shell" cx="4091" cy="3211.641" rx="3" ry="3" layerid="11" stroke-width="0"/><circle c_etype="pad_hole" cx="4091" cy="3211.641" r="1.8" layerid="11" stroke-width="0"/></g><g c_partid="part_pad" c_etype="pinpart" c_origin="4091,3201.641" layerid="11" number="3" net="S1_3" plated="Y" id="gge109" locked="0" c_rotation="90" c_width="6" c_height="6" title="S1_3" c_shape="ELLIPSE" pasteexpansion="0" solderexpansion="0.4"><ellipse c_etype="pad_shell" cx="4091" cy="3201.641" rx="3" ry="3" layerid="11" stroke-width="0"/><circle c_etype="pad_hole" cx="4091" cy="3201.641" r="1.8" layerid="11" stroke-width="0"/></g><g c_partid="part_pad" c_etype="pinpart" c_origin="4091,3221.641" layerid="11" number="1" net="GND" plated="Y" id="gge110" locked="0" c_rotation="90" c_width="6" c_height="6" title="GND" c_shape="ELLIPSE" pasteexpansion="0" solderexpansion="0.4"><ellipse c_etype="pad_shell" cx="4091" cy="3221.641" rx="3" ry="3" layerid="11" stroke-width="0"/><circle c_etype="pad_hole" cx="4091" cy="3221.641" r="1.8" layerid="11" stroke-width="0"/></g><g c_partid="part_pad" c_etype="pinpart" c_origin="4139,3211.641" layerid="11" number="2" net="S2_2" plated="Y" id="gge121" locked="0" c_rotation="270" c_width="6" c_height="6" title="S2_2" c_shape="ELLIPSE" pasteexpansion="0" solderexpansion="0.4"><ellipse c_etype="pad_shell" cx="4139" cy="3211.641" rx="3" ry="3" layerid="11" stroke-width="0"/><circle c_etype="pad_hole" cx="4139" cy="3211.641" r="1.8" layerid="11" stroke-width="0"/></g><g c_partid="part_pad" c_etype="pinpart" c_origin="4139,3221.641" layerid="11" number="3" net="GND" plated="Y" id="gge122" locked="0" c_rotation="270" c_width="6" c_height="6" title="GND" c_shape="ELLIPSE" pasteexpansion="0" solderexpansion="0.4"><ellipse c_etype="pad_shell" cx="4139" cy="3221.641" rx="3" ry="3" layerid="11" stroke-width="0"/><circle c_etype="pad_hole" cx="4139" cy="3221.641" r="1.8" layerid="11" stroke-width="0"/></g><g c_partid="part_pad" c_etype="pinpart" c_origin="4139,3201.641" layerid="11" number="1" net="S1_3" plated="Y" id="gge123" locked="0" c_rotation="270" c_width="6" c_height="6" title="S1_3" c_shape="ELLIPSE" pasteexpansion="0" solderexpansion="0.4"><ellipse c_etype="pad_shell" cx="4139" cy="3201.641" rx="3" ry="3" layerid="11" stroke-width="0"/><circle c_etype="pad_hole" cx="4139" cy="3201.641" r="1.8" layerid="11" stroke-width="0"/></g><g c_partid="part_pad" c_etype="pinpart" c_origin="4035,3210" layerid="11" number="1" net="GND" plated="Y" id="gge133" locked="0" c_rotation="0" c_width="6.3" c_height="6.3" title="GND" c_shape="RECT" pasteexpansion="0" solderexpansion="0.4"><polygon c_etype="pad_shell" points="4031.85 3206.85 4038.15 3206.85 4038.15 3213.15 4031.85 3213.15" layerid="11" stroke-width="0"/><circle c_etype="pad_hole" cx="4035" cy="3210" r="1.75" layerid="11" stroke-width="0"/></g><g c_partid="part_pad" c_etype="pinpart" c_origin="4045,3210" layerid="11" number="2" net="U1_2" plated="Y" id="gge134" locked="0" c_rotation="0" c_width="6.3" c_height="6.3" title="U1_2" c_shape="ELLIPSE" pasteexpansion="0" solderexpansion="0.4"><ellipse c_etype="pad_shell" cx="4045" cy="3210" rx="3.15" ry="3.15" layerid="11" stroke-width="0"/><circle c_etype="pad_hole" cx="4045" cy="3210" r="1.75" layerid="11" stroke-width="0"/></g><g c_partid="part_pad" c_etype="pinpart" c_origin="4055,3210" layerid="11" number="3" net="P1_3" plated="Y" id="gge135" locked="0" c_rotation="0" c_width="6.3" c_height="6.3" title="P1_3" c_shape="ELLIPSE" pasteexpansion="0" solderexpansion="0.4"><ellipse c_etype="pad_shell" cx="4055" cy="3210" rx="3.15" ry="3.15" layerid="11" stroke-width="0"/><circle c_etype="pad_hole" cx="4055" cy="3210" r="1.75" layerid="11" stroke-width="0"/></g><g c_partid="part_pad" c_etype="pinpart" c_origin="4065,3210" layerid="11" number="4" net="S1_3" plated="Y" id="gge136" locked="0" c_rotation="0" c_width="6.3" c_height="6.3" title="S1_3" c_shape="ELLIPSE" pasteexpansion="0" solderexpansion="0.4"><ellipse c_etype="pad_shell" cx="4065" cy="3210" rx="3.15" ry="3.15" layerid="11" stroke-width="0"/><circle c_etype="pad_hole" cx="4065" cy="3210" r="1.75" layerid="11" stroke-width="0"/></g><g c_partid="part_pad" c_etype="pinpart" c_origin="4065,3180" layerid="11" number="5" net="U1_5" plated="Y" id="gge137" locked="0" c_rotation="0" c_width="6.3" c_height="6.3" title="U1_5" c_shape="ELLIPSE" pasteexpansion="0" solderexpansion="0.4"><ellipse c_etype="pad_shell" cx="4065" cy="3180" rx="3.15" ry="3.15" layerid="11" stroke-width="0"/><circle c_etype="pad_hole" cx="4065" cy="3180" r="1.75" layerid="11" stroke-width="0"/></g><g c_partid="part_pad" c_etype="pinpart" c_origin="4055,3180" layerid="11" number="6" net="U1_2" plated="Y" id="gge138" locked="0" c_rotation="0" c_width="6.3" c_height="6.3" title="U1_2" c_shape="ELLIPSE" pasteexpansion="0" solderexpansion="0.4"><ellipse c_etype="pad_shell" cx="4055" cy="3180" rx="3.15" ry="3.15" layerid="11" stroke-width="0"/><circle c_etype="pad_hole" cx="4055" cy="3180" r="1.75" layerid="11" stroke-width="0"/></g><g c_partid="part_pad" c_etype="pinpart" c_origin="4045,3180" layerid="11" number="7" net="U1_7" plated="Y" id="gge139" locked="0" c_rotation="0" c_width="6.3" c_height="6.3" title="U1_7" c_shape="ELLIPSE" pasteexpansion="0" solderexpansion="0.4"><ellipse c_etype="pad_shell" cx="4045" cy="3180" rx="3.15" ry="3.15" layerid="11" stroke-width="0"/><circle c_etype="pad_hole" cx="4045" cy="3180" r="1.75" layerid="11" stroke-width="0"/></g><g c_partid="part_pad" c_etype="pinpart" c_origin="4035,3180" layerid="11" number="8" net="S1_3" plated="Y" id="gge140" locked="0" c_rotation="0" c_width="6.3" c_height="6.3" title="S1_3" c_shape="ELLIPSE" pasteexpansion="0" solderexpansion="0.4"><ellipse c_etype="pad_shell" cx="4035" cy="3180" rx="3.15" ry="3.15" layerid="11" stroke-width="0"/><circle c_etype="pad_hole" cx="4035" cy="3180" r="1.75" layerid="11" stroke-width="0"/></g><g c_partid="part_pad" c_etype="pinpart" c_origin="4052.9,3014" layerid="11" number="1" net="GND" plated="Y" id="gge149" locked="0" c_rotation="180" c_width="7.28" c_height="7.28" title="GND" c_shape="RECT" pasteexpansion="0" solderexpansion="0.4"><polygon c_etype="pad_shell" points="4056.54 3017.64 4049.26 3017.64 4049.26 3010.36 4056.54 3010.36" layerid="11" stroke-width="0"/><circle c_etype="pad_hole" cx="4052.9" cy="3014" r="1.97" layerid="11" stroke-width="0"/></g><g c_partid="part_pad" c_etype="pinpart" c_origin="4039.1,3014" layerid="11" number="2" net="U2_16" plated="Y" id="gge150" locked="0" c_rotation="180" c_width="7.28" c_height="7.28" title="U2_16" c_shape="ELLIPSE" pasteexpansion="0" solderexpansion="0.4"><ellipse c_etype="pad_shell" cx="4039.1" cy="3014" rx="3.64" ry="3.64" layerid="11" stroke-width="0"/><circle c_etype="pad_hole" cx="4039.1" cy="3014" r="1.97" layerid="11" stroke-width="0"/></g><g c_partid="part_pad" c_etype="pinpart" c_origin="4018,3198" layerid="11" number="2" net="GND" plated="Y" id="gge159" locked="0" c_rotation="0" c_width="3.937" c_height="3.937" title="GND" c_shape="ELLIPSE" pasteexpansion="0" solderexpansion="0.4"><ellipse c_etype="pad_shell" cx="4018" cy="3198" rx="1.9685" ry="1.9685" layerid="11" stroke-width="0"/><circle c_etype="pad_hole" cx="4018" cy="3198" r="1.378" layerid="11" stroke-width="0"/></g><g c_partid="part_pad" c_etype="pinpart" c_origin="4018,3192.09" layerid="11" number="1" net="S1_3" plated="Y" id="gge164" locked="0" c_rotation="0" c_width="3.937" c_height="3.937" title="S1_3" c_shape="ELLIPSE" pasteexpansion="0" solderexpansion="0.4"><ellipse c_etype="pad_shell" cx="4018" cy="3192.09" rx="1.9685" ry="1.9685" layerid="11" stroke-width="0"/><circle c_etype="pad_hole" cx="4018" cy="3192.09" r="1.378" layerid="11" stroke-width="0"/></g><g c_partid="part_pad" c_etype="pinpart" c_origin="4150,3054" layerid="11" number="2" net="GND" plated="Y" id="gge177" locked="0" c_rotation="0" c_width="3.937" c_height="3.937" title="GND" c_shape="ELLIPSE" pasteexpansion="0" solderexpansion="0.4"><ellipse c_etype="pad_shell" cx="4150" cy="3054" rx="1.9685" ry="1.9685" layerid="11" stroke-width="0"/><circle c_etype="pad_hole" cx="4150" cy="3054" r="1.378" layerid="11" stroke-width="0"/></g><g c_partid="part_pad" c_etype="pinpart" c_origin="4150,3048.09" layerid="11" number="1" net="U2_16" plated="Y" id="gge182" locked="0" c_rotation="0" c_width="3.937" c_height="3.937" title="U2_16" c_shape="ELLIPSE" pasteexpansion="0" solderexpansion="0.4"><ellipse c_etype="pad_shell" cx="4150" cy="3048.09" rx="1.9685" ry="1.9685" layerid="11" stroke-width="0"/><circle c_etype="pad_hole" cx="4150" cy="3048.09" r="1.378" layerid="11" stroke-width="0"/></g><g c_partid="part_pad" c_etype="pinpart" c_origin="4136.5,3068" layerid="11" number="14" net="U2_14" plated="Y" id="gge224" locked="0" c_rotation="0" c_width="6" c_height="6" title="U2_14" c_shape="ELLIPSE" pasteexpansion="0" solderexpansion="0.4"><ellipse c_etype="pad_shell" cx="4136.5" cy="3068" rx="3" ry="3" layerid="11" stroke-width="0"/><circle c_etype="pad_hole" cx="4136.5" cy="3068" r="1.5" layerid="11" stroke-width="0"/></g><g c_partid="part_pad" c_etype="pinpart" c_origin="4136.5,3058" layerid="11" number="15" net="GND" plated="Y" id="gge229" locked="0" c_rotation="0" c_width="6" c_height="6" title="GND" c_shape="ELLIPSE" pasteexpansion="0" solderexpansion="0.4"><ellipse c_etype="pad_shell" cx="4136.5" cy="3058" rx="3" ry="3" layerid="11" stroke-width="0"/><circle c_etype="pad_hole" cx="4136.5" cy="3058" r="1.5" layerid="11" stroke-width="0"/></g><g c_partid="part_pad" c_etype="pinpart" c_origin="4136.5,3048" layerid="11" number="16" net="U2_16" plated="Y" id="gge234" locked="0" c_rotation="0" c_width="6" c_height="6" title="U2_16" c_shape="ELLIPSE" pasteexpansion="0" solderexpansion="0.4"><ellipse c_etype="pad_shell" cx="4136.5" cy="3048" rx="3" ry="3" layerid="11" stroke-width="0"/><circle c_etype="pad_hole" cx="4136.5" cy="3048" r="1.5" layerid="11" stroke-width="0"/></g><g c_partid="part_pad" c_etype="pinpart" c_origin="4136.5,3078" layerid="11" number="13" net="U2_13" plated="Y" id="gge239" locked="0" c_rotation="0" c_width="6" c_height="6" title="U2_13" c_shape="ELLIPSE" pasteexpansion="0" solderexpansion="0.4"><ellipse c_etype="pad_shell" cx="4136.5" cy="3078" rx="3" ry="3" layerid="11" stroke-width="0"/><circle c_etype="pad_hole" cx="4136.5" cy="3078" r="1.5" layerid="11" stroke-width="0"/></g><g c_partid="part_pad" c_etype="pinpart" c_origin="4136.5,3088" layerid="11" number="12" net="U2_12" plated="Y" id="gge244" locked="0" c_rotation="0" c_width="6" c_height="6" title="U2_12" c_shape="ELLIPSE" pasteexpansion="0" solderexpansion="0.4"><ellipse c_etype="pad_shell" cx="4136.5" cy="3088" rx="3" ry="3" layerid="11" stroke-width="0"/><circle c_etype="pad_hole" cx="4136.5" cy="3088" r="1.5" layerid="11" stroke-width="0"/></g><g c_partid="part_pad" c_etype="pinpart" c_origin="4136.5,3098" layerid="11" number="11" net="U2_11" plated="Y" id="gge249" locked="0" c_rotation="0" c_width="6" c_height="6" title="U2_11" c_shape="ELLIPSE" pasteexpansion="0" solderexpansion="0.4"><ellipse c_etype="pad_shell" cx="4136.5" cy="3098" rx="3" ry="3" layerid="11" stroke-width="0"/><circle c_etype="pad_hole" cx="4136.5" cy="3098" r="1.5" layerid="11" stroke-width="0"/></g><g c_partid="part_pad" c_etype="pinpart" c_origin="4136.5,3108" layerid="11" number="10" net="S1_3" plated="Y" id="gge254" locked="0" c_rotation="0" c_width="6" c_height="6" title="S1_3" c_shape="ELLIPSE" pasteexpansion="0" solderexpansion="0.4"><ellipse c_etype="pad_shell" cx="4136.5" cy="3108" rx="3" ry="3" layerid="11" stroke-width="0"/><circle c_etype="pad_hole" cx="4136.5" cy="3108" r="1.5" layerid="11" stroke-width="0"/></g><g c_partid="part_pad" c_etype="pinpart" c_origin="4136.5,3118" layerid="11" number="9" net="GND" plated="Y" id="gge259" locked="0" c_rotation="0" c_width="6" c_height="6" title="GND" c_shape="ELLIPSE" pasteexpansion="0" solderexpansion="0.4"><ellipse c_etype="pad_shell" cx="4136.5" cy="3118" rx="3" ry="3" layerid="11" stroke-width="0"/><circle c_etype="pad_hole" cx="4136.5" cy="3118" r="1.5" layerid="11" stroke-width="0"/></g><g c_partid="part_pad" c_etype="pinpart" c_origin="4086.5,3118" layerid="11" number="8" net="S1_2" plated="Y" id="gge264" locked="0" c_rotation="0" c_width="6" c_height="6" title="S1_2" c_shape="ELLIPSE" pasteexpansion="0" solderexpansion="0.4"><ellipse c_etype="pad_shell" cx="4086.5" cy="3118" rx="3" ry="3" layerid="11" stroke-width="0"/><circle c_etype="pad_hole" cx="4086.5" cy="3118" r="1.5" layerid="11" stroke-width="0"/></g><g c_partid="part_pad" c_etype="pinpart" c_origin="4086.5,3108" layerid="11" number="7" net="P1_3" plated="Y" id="gge269" locked="0" c_rotation="0" c_width="6" c_height="6" title="P1_3" c_shape="ELLIPSE" pasteexpansion="0" solderexpansion="0.4"><ellipse c_etype="pad_shell" cx="4086.5" cy="3108" rx="3" ry="3" layerid="11" stroke-width="0"/><circle c_etype="pad_hole" cx="4086.5" cy="3108" r="1.5" layerid="11" stroke-width="0"/></g><g c_partid="part_pad" c_etype="pinpart" c_origin="4086.5,3098" layerid="11" number="6" net="U2_5" plated="Y" id="gge274" locked="0" c_rotation="0" c_width="6" c_height="6" title="U2_5" c_shape="ELLIPSE" pasteexpansion="0" solderexpansion="0.4"><ellipse c_etype="pad_shell" cx="4086.5" cy="3098" rx="3" ry="3" layerid="11" stroke-width="0"/><circle c_etype="pad_hole" cx="4086.5" cy="3098" r="1.5" layerid="11" stroke-width="0"/></g><g c_partid="part_pad" c_etype="pinpart" c_origin="4086.5,3088" layerid="11" number="5" net="U2_5" plated="Y" id="gge279" locked="0" c_rotation="0" c_width="6" c_height="6" title="U2_5" c_shape="ELLIPSE" pasteexpansion="0" solderexpansion="0.4"><ellipse c_etype="pad_shell" cx="4086.5" cy="3088" rx="3" ry="3" layerid="11" stroke-width="0"/><circle c_etype="pad_hole" cx="4086.5" cy="3088" r="1.5" layerid="11" stroke-width="0"/></g><g c_partid="part_pad" c_etype="pinpart" c_origin="4086.5,3078" layerid="11" number="4" net="S1_3" plated="Y" id="gge284" locked="0" c_rotation="0" c_width="6" c_height="6" title="S1_3" c_shape="ELLIPSE" pasteexpansion="0" solderexpansion="0.4"><ellipse c_etype="pad_shell" cx="4086.5" cy="3078" rx="3" ry="3" layerid="11" stroke-width="0"/><circle c_etype="pad_hole" cx="4086.5" cy="3078" r="1.5" layerid="11" stroke-width="0"/></g><g c_partid="part_pad" c_etype="pinpart" c_origin="4086.5,3068" layerid="11" number="3" net="S1_3" plated="Y" id="gge289" locked="0" c_rotation="0" c_width="6" c_height="6" title="S1_3" c_shape="ELLIPSE" pasteexpansion="0" solderexpansion="0.4"><ellipse c_etype="pad_shell" cx="4086.5" cy="3068" rx="3" ry="3" layerid="11" stroke-width="0"/><circle c_etype="pad_hole" cx="4086.5" cy="3068" r="1.5" layerid="11" stroke-width="0"/></g><g c_partid="part_pad" c_etype="pinpart" c_origin="4086.5,3058" layerid="11" number="2" net="S1_3" plated="Y" id="gge294" locked="0" c_rotation="0" c_width="6" c_height="6" title="S1_3" c_shape="ELLIPSE" pasteexpansion="0" solderexpansion="0.4"><ellipse c_etype="pad_shell" cx="4086.5" cy="3058" rx="3" ry="3" layerid="11" stroke-width="0"/><circle c_etype="pad_hole" cx="4086.5" cy="3058" r="1.5" layerid="11" stroke-width="0"/></g><g c_partid="part_pad" c_etype="pinpart" c_origin="4086.5,3048" layerid="11" number="1" net="S2_2" plated="Y" id="gge299" locked="0" c_rotation="0" c_width="6" c_height="6" title="S2_2" c_shape="ELLIPSE" pasteexpansion="0" solderexpansion="0.4"><ellipse c_etype="pad_shell" cx="4086.5" cy="3048" rx="3" ry="3" layerid="11" stroke-width="0"/><circle c_etype="pad_hole" cx="4086.5" cy="3048" r="1.5" layerid="11" stroke-width="0"/></g><g c_partid="part_pad" c_etype="pinpart" c_origin="4070.13,3121.13" layerid="11" number="3" net="GND" plated="Y" id="gge312" locked="0" c_rotation="180" c_width="5.9055" c_height="9.8425" title="GND" c_shape="OVAL" pasteexpansion="0" solderexpansion="0.4"><polyline c_etype="pad_shell" points="4070.13 3123.0985 4070.13 3119.1615" layerid="11" stroke-width="5.9055"/><circle c_etype="pad_hole" cx="4070.13" cy="3121.13" r="1.9685" layerid="11" stroke-width="0"/></g><g c_partid="part_pad" c_etype="pinpart" c_origin="4060.13,3121.13" layerid="11" number="3" net="GND" plated="Y" id="gge317" locked="0" c_rotation="180" c_width="5.9055" c_height="9.8425" title="GND" c_shape="OVAL" pasteexpansion="0" solderexpansion="0.4"><polyline c_etype="pad_shell" points="4060.13 3123.0985 4060.13 3119.1615" layerid="11" stroke-width="5.9055"/><circle c_etype="pad_hole" cx="4060.13" cy="3121.13" r="1.9685" layerid="11" stroke-width="0"/></g><g c_partid="part_pad" c_etype="pinpart" c_origin="4025.56,3121.13" layerid="11" number="2" net="S1_3" plated="Y" id="gge322" locked="0" c_rotation="180" c_width="5.9055" c_height="9.8425" title="S1_3" c_shape="OVAL" pasteexpansion="0" solderexpansion="0.4"><polyline c_etype="pad_shell" points="4025.56 3123.0985 4025.56 3119.1615" layerid="11" stroke-width="5.9055"/><circle c_etype="pad_hole" cx="4025.56" cy="3121.13" r="1.9685" layerid="11" stroke-width="0"/></g><g c_partid="part_pad" c_etype="pinpart" c_origin="4015.56,3121.14" layerid="11" number="2" net="S1_3" plated="Y" id="gge327" locked="0" c_rotation="180" c_width="5.9055" c_height="9.8425" title="S1_3" c_shape="OVAL" pasteexpansion="0" solderexpansion="0.4"><polyline c_etype="pad_shell" points="4015.56 3123.1085 4015.56 3119.1715" layerid="11" stroke-width="5.9055"/><circle c_etype="pad_hole" cx="4015.56" cy="3121.14" r="1.9685" layerid="11" stroke-width="0"/></g><g c_partid="part_pad" c_etype="pinpart" c_origin="4070.13,3046.32" layerid="11" number="3" net="GND" plated="Y" id="gge332" locked="0" c_rotation="180" c_width="5.9055" c_height="9.8425" title="GND" c_shape="OVAL" pasteexpansion="0" solderexpansion="0.4"><polyline c_etype="pad_shell" points="4070.13 3048.2885 4070.13 3044.3515" layerid="11" stroke-width="5.9055"/><circle c_etype="pad_hole" cx="4070.13" cy="3046.32" r="1.9685" layerid="11" stroke-width="0"/></g><g c_partid="part_pad" c_etype="pinpart" c_origin="4060.13,3046.32" layerid="11" number="3" net="GND" plated="Y" id="gge337" locked="0" c_rotation="180" c_width="5.9055" c_height="9.8425" title="GND" c_shape="OVAL" pasteexpansion="0" solderexpansion="0.4"><polyline c_etype="pad_shell" points="4060.13 3048.2885 4060.13 3044.3515" layerid="11" stroke-width="5.9055"/><circle c_etype="pad_hole" cx="4060.13" cy="3046.32" r="1.9685" layerid="11" stroke-width="0"/></g><g c_partid="part_pad" c_etype="pinpart" c_origin="4025.56,3046.32" layerid="11" number="1" net="U2_16" plated="Y" id="gge342" locked="0" c_rotation="180" c_width="5.9055" c_height="9.8425" title="U2_16" c_shape="OVAL" pasteexpansion="0" solderexpansion="0.4"><polyline c_etype="pad_shell" points="4025.56 3048.2885 4025.56 3044.3515" layerid="11" stroke-width="5.9055"/><circle c_etype="pad_hole" cx="4025.56" cy="3046.32" r="1.9685" layerid="11" stroke-width="0"/></g><g c_partid="part_pad" c_etype="pinpart" c_origin="4015.56,3046.33" layerid="11" number="1" net="U2_16" plated="Y" id="gge345" locked="0" c_rotation="180" c_width="5.9055" c_height="9.8425" title="U2_16" c_shape="OVAL" pasteexpansion="0" solderexpansion="0.4"><polyline c_etype="pad_shell" points="4015.56 3048.2985 4015.56 3044.3615" layerid="11" stroke-width="5.9055"/><circle c_etype="pad_hole" cx="4015.56" cy="3046.33" r="1.9685" layerid="11" stroke-width="0"/></g><g c_partid="part_hole" c_etype="pinpart" c_shapetype="group" c_origin="4012,3012" layerid="11" id="gge364" locked="0"><circle cx="4012" cy="3012" r="5.9055" stroke-width="0"/></g><g c_partid="part_hole" c_etype="pinpart" c_shapetype="group" c_origin="4165,3012" layerid="11" id="gge366" locked="0"><circle cx="4165" cy="3012" r="5.9055" stroke-width="0"/></g><g c_partid="part_hole" c_etype="pinpart" c_shapetype="group" c_origin="4165,3264" layerid="11" id="gge367" locked="0"><circle cx="4165" cy="3264" r="5.9055" stroke-width="0"/></g><g c_partid="part_hole" c_etype="pinpart" c_shapetype="group" c_origin="4012,3264" layerid="11" id="gge368" locked="0"><circle cx="4012" cy="3264" r="5.9055" stroke-width="0"/></g><polyline points="4079.99 3135.01 4059.99 3135.01 4059.99 3145.01 4079.99 3145.01 4079.99 3135.01" stroke-width="0.79" stroke-linecap="round" fill="none" layerid="3" net="" id="gge38" locked="0"/><polyline points="4079.99 3161.01 4059.99 3161.01 4059.99 3171.01 4079.99 3171.01 4079.99 3161.01" stroke-width="0.79" stroke-linecap="round" fill="none" layerid="3" net="" id="gge44" locked="0"/><polyline points="4176.8 3063.1 4176.8 3090.7 4171.3 3090.7 4154.7 3090.7 4149.2 3090.7 4149.2 3063.1 4154.7 3063.1 4171.3 3063.1 4176.8 3063.1" stroke-width="1" stroke-linecap="round" fill="none" layerid="3" net="" id="gge50" locked="0"/><polyline points="4171.3 3063.1 4171.3 3090.7" stroke-width="1" stroke-linecap="round" fill="none" layerid="3" net="" id="gge51" locked="0"/><polyline points="4154.7 3063.1 4154.7 3090.7" stroke-width="1" stroke-linecap="round" fill="none" layerid="3" net="" id="gge52" locked="0"/><polyline points="4176.8 3090.1 4176.8 3117.7 4171.3 3117.7 4154.7 3117.7 4149.2 3117.7 4149.2 3090.1 4154.7 3090.1 4171.3 3090.1 4176.8 3090.1" stroke-width="1" stroke-linecap="round" fill="none" layerid="3" net="" id="gge60" locked="0"/><polyline points="4171.3 3090.1 4171.3 3117.7" stroke-width="1" stroke-linecap="round" fill="none" layerid="3" net="" id="gge61" locked="0"/><polyline points="4154.7 3090.1 4154.7 3117.7" stroke-width="1" stroke-linecap="round" fill="none" layerid="3" net="" id="gge62" locked="0"/><polyline points="4032 3275 4092 3275 4092 3255 4032 3255 4032 3275" stroke-width="1" stroke-linecap="round" fill="none" layerid="3" net="" id="gge70" locked="0"/><polyline points="4070 3243 4060 3243 4060 3233 4070 3233 4070 3240.5" stroke-width="0.8" stroke-linecap="round" fill="none" layerid="3" net="" id="gge77" locked="0"/><polyline points="4070 3243 4070 3240.5" stroke-width="0.79921" stroke-linecap="round" fill="none" layerid="3" net="" id="gge78" locked="0"/><polyline points="4044.4 3135.3 4044.4 3144.7" stroke-width="1" stroke-linecap="round" fill="none" layerid="3" net="" id="gge83" locked="0"/><polyline points="4044.4 3144.7 4019.6 3144.7" stroke-width="1" stroke-linecap="round" fill="none" layerid="3" net="" id="gge84" locked="0"/><polyline points="4019.6 3144.7 4019.6 3135.3" stroke-width="1" stroke-linecap="round" fill="none" layerid="3" net="" id="gge85" locked="0"/><polyline points="4019.6 3135.3 4044.4 3135.3" stroke-width="1" stroke-linecap="round" fill="none" layerid="3" net="" id="gge86" locked="0"/><polyline points="4042.4 3232.3 4042.4 3241.7" stroke-width="1" stroke-linecap="round" fill="none" layerid="3" net="" id="gge92" locked="0"/><polyline points="4042.4 3241.7 4017.6 3241.7" stroke-width="1" stroke-linecap="round" fill="none" layerid="3" net="" id="gge93" locked="0"/><polyline points="4017.6 3241.7 4017.6 3232.3" stroke-width="1" stroke-linecap="round" fill="none" layerid="3" net="" id="gge94" locked="0"/><polyline points="4017.6 3232.3 4042.4 3232.3" stroke-width="1" stroke-linecap="round" fill="none" layerid="3" net="" id="gge95" locked="0"/><polyline points="4087.06 3228.371 4087.06 3194.911" stroke-width="1" stroke-linecap="round" fill="none" layerid="3" net="" id="gge101" locked="0"/><polyline points="4087.06 3194.911 4099.66 3194.911" stroke-width="1" stroke-linecap="round" fill="none" layerid="3" net="" id="gge102" locked="0"/><polyline points="4099.66 3194.911 4099.66 3228.371" stroke-width="1" stroke-linecap="round" fill="none" layerid="3" net="" id="gge103" locked="0"/><polyline points="4087.06 3228.371 4099.66 3228.371" stroke-width="1" stroke-linecap="round" fill="none" layerid="3" net="" id="gge104" locked="0"/><polyline points="4099.66 3214.401 4107.14 3214.401" stroke-width="1" stroke-linecap="round" fill="none" layerid="3" net="" id="gge105" locked="0"/><polyline points="4099.66 3208.881 4107.14 3208.881" stroke-width="1" stroke-linecap="round" fill="none" layerid="3" net="" id="gge106" locked="0"/><polyline points="4107.14 3214.401 4107.14 3208.881" stroke-width="1" stroke-linecap="round" fill="none" layerid="3" net="" id="gge107" locked="0"/><polyline points="4142.94 3194.911 4142.94 3228.371" stroke-width="1" stroke-linecap="round" fill="none" layerid="3" net="" id="gge114" locked="0"/><polyline points="4142.94 3228.371 4130.34 3228.371" stroke-width="1" stroke-linecap="round" fill="none" layerid="3" net="" id="gge115" locked="0"/><polyline points="4130.34 3228.371 4130.34 3194.911" stroke-width="1" stroke-linecap="round" fill="none" layerid="3" net="" id="gge116" locked="0"/><polyline points="4142.94 3194.911 4130.34 3194.911" stroke-width="1" stroke-linecap="round" fill="none" layerid="3" net="" id="gge117" locked="0"/><polyline points="4130.34 3208.881 4122.86 3208.881" stroke-width="1" stroke-linecap="round" fill="none" layerid="3" net="" id="gge118" locked="0"/><polyline points="4130.34 3214.401 4122.86 3214.401" stroke-width="1" stroke-linecap="round" fill="none" layerid="3" net="" id="gge119" locked="0"/><polyline points="4122.86 3208.881 4122.86 3214.401" stroke-width="1" stroke-linecap="round" fill="none" layerid="3" net="" id="gge120" locked="0"/><polyline points="4070 3205 4070 3185" stroke-width="1" stroke-linecap="round" fill="none" layerid="3" net="" id="gge127" locked="0"/><polyline points="4070 3185 4030 3185" stroke-width="1" stroke-linecap="round" fill="none" layerid="3" net="" id="gge128" locked="0"/><polyline points="4070 3205 4030 3205" stroke-width="1" stroke-linecap="round" fill="none" layerid="3" net="" id="gge129" locked="0"/><polyline points="4030 3205 4030 3200" stroke-width="1" stroke-linecap="round" fill="none" layerid="3" net="" id="gge130" locked="0"/><polyline points="4030 3190 4030 3185" stroke-width="1" stroke-linecap="round" fill="none" layerid="3" net="" id="gge131" locked="0"/><polyline points="4059.8 3027.8 4032.2 3027.8 4032.2 3022.3 4032.2 3005.7 4032.2 3000.2 4059.8 3000.2 4059.8 3005.7 4059.8 3022.3 4059.8 3027.8" stroke-width="1" stroke-linecap="round" fill="none" layerid="3" net="" id="gge144" locked="0"/><polyline points="4059.8 3022.3 4032.2 3022.3" stroke-width="1" stroke-linecap="round" fill="none" layerid="3" net="" id="gge145" locked="0"/><polyline points="4059.8 3005.7 4032.2 3005.7" stroke-width="1" stroke-linecap="round" fill="none" layerid="3" net="" id="gge146" locked="0"/><polyline points="4016.543 3186.189 4019.643 3186.189" stroke-width="1" stroke-linecap="round" fill="none" layerid="3" net="" id="gge155" locked="0"/><polyline points="4018.039 3187.914 4018.039 3184.614" stroke-width="1" stroke-linecap="round" fill="none" layerid="3" net="" id="gge156" locked="0"/><polyline points="4148.543 3042.189 4151.643 3042.189" stroke-width="1" stroke-linecap="round" fill="none" layerid="3" net="" id="gge173" locked="0"/><polyline points="4150.039 3043.914 4150.039 3040.614" stroke-width="1" stroke-linecap="round" fill="none" layerid="3" net="" id="gge174" locked="0"/><polyline points="4141.5 3123 4081.5 3123 4081.5 3043 4141.5 3043 4141.5 3123" stroke-width="0.5" stroke-linecap="round" fill="none" layerid="3" net="" id="gge191" locked="0"/><polyline points="4078 3129 4009.102 3129 4009.102 3038.449 4078 3038.449 4078 3129" stroke-width="1" stroke-linecap="round" fill="none" layerid="3" net="" id="gge311" locked="0"/><g c_partid="part_pcbtext" c_etype="" c_origin="4086,3239" c_rotation="0" c_mirror="0" id="gge360" locked="0" layerid="3" c_shapetype="group"><path c_fontsize="8" c_fontfamily="" c_text="DIR" d="M 4086 3234.6404 L 4086 3242.2704 M 4086 3234.6404 L 4088.55 3234.6404 L 4089.64 3235.0004 L 4090.36 3235.7304 L 4090.73 3236.4504 L 4091.09 3237.5504 L 4091.09 3239.3604 L 4090.73 3240.4504 L 4090.36 3241.1804 L 4089.64 3241.9104 L 4088.55 3242.2704 L 4086 3242.2704 M 4093.49 3234.6404 L 4093.49 3242.2704 M 4095.89 3234.6404 L 4095.89 3242.2704 M 4095.89 3234.6404 L 4099.16 3234.6404 L 4100.25 3235.0004 L 4100.62 3235.3604 L 4100.98 3236.0904 L 4100.98 3236.8204 L 4100.62 3237.5504 L 4100.25 3237.9104 L 4099.16 3238.2704 L 4095.89 3238.2704 M 4098.44 3238.2704 L 4100.98 3242.2704" fill="none" stroke-width="0.8"/></g><g c_partid="part_pcbtext" c_etype="" c_origin="4128,3239" c_rotation="0" c_mirror="0" id="gge361" locked="0" layerid="3" c_shapetype="group"><path c_fontsize="8" c_fontfamily="" c_text="ENA" d="M 4128 3234.6404 L 4128 3242.2704 M 4128 3234.6404 L 4132.73 3234.6404 M 4128 3238.2704 L 4130.91 3238.2704 M 4128 3242.2704 L 4132.73 3242.2704 M 4135.13 3234.6404 L 4135.13 3242.2704 M 4135.13 3234.6404 L 4140.22 3242.2704 M 4140.22 3234.6404 L 4140.22 3242.2704 M 4145.53 3234.6404 L 4142.62 3242.2704 M 4145.53 3234.6404 L 4148.44 3242.2704 M 4143.71 3239.7304 L 4147.35 3239.7304" fill="none" stroke-width="0.8"/></g><g c_partid="part_pcbtext" c_etype="" c_origin="4128,3264.359" c_rotation="0" c_mirror="0" id="gge362" locked="0" layerid="3" c_shapetype="group"><path c_fontsize="8" c_fontfamily="" c_text="BV18" d="M 4128 3259.9994 L 4128 3267.6294 M 4128 3259.9994 L 4131.27 3259.9994 L 4132.36 3260.3594 L 4132.73 3260.7194 L 4133.09 3261.4494 L 4133.09 3262.1794 L 4132.73 3262.9094 L 4132.36 3263.2694 L 4131.27 3263.6294 M 4128 3263.6294 L 4131.27 3263.6294 L 4132.36 3263.9994 L 4132.73 3264.3594 L 4133.09 3265.0894 L 4133.09 3266.1794 L 4132.73 3266.9094 L 4132.36 3267.2694 L 4131.27 3267.6294 L 4128 3267.6294 M 4135.49 3259.9994 L 4138.4 3267.6294 M 4141.31 3259.9994 L 4138.4 3267.6294 M 4143.71 3261.4494 L 4144.44 3261.0894 L 4145.53 3259.9994 L 4145.53 3267.6294 M 4149.75 3259.9994 L 4148.65 3260.3594 L 4148.29 3261.0894 L 4148.29 3261.8094 L 4148.65 3262.5394 L 4149.38 3262.9094 L 4150.84 3263.2694 L 4151.93 3263.6294 L 4152.65 3264.3594 L 4153.02 3265.0894 L 4153.02 3266.1794 L 4152.65 3266.9094 L 4152.29 3267.2694 L 4151.2 3267.6294 L 4149.75 3267.6294 L 4148.65 3267.2694 L 4148.29 3266.9094 L 4147.93 3266.1794 L 4147.93 3265.0894 L 4148.29 3264.3594 L 4149.02 3263.6294 L 4150.11 3263.2694 L 4151.56 3262.9094 L 4152.29 3262.5394 L 4152.65 3261.8094 L 4152.65 3261.0894 L 4152.29 3260.3594 L 4151.2 3259.9994 L 4149.75 3259.9994" fill="none" stroke-width="0.8"/></g><g c_partid="part_pcbtext" c_etype="" c_origin="4063,3015" c_rotation="0" c_mirror="0" id="gge363" locked="0" layerid="3" c_shapetype="group"><path c_fontsize="8" c_fontfamily="" c_text="+12V" d="M 4066.27 3011.7304 L 4066.27 3018.2704 M 4063 3015.0004 L 4069.55 3015.0004 M 4071.95 3012.0904 L 4072.67 3011.7304 L 4073.76 3010.6404 L 4073.76 3018.2704 M 4076.53 3012.4504 L 4076.53 3012.0904 L 4076.89 3011.3604 L 4077.25 3011.0004 L 4077.98 3010.6404 L 4079.44 3010.6404 L 4080.16 3011.0004 L 4080.53 3011.3604 L 4080.89 3012.0904 L 4080.89 3012.8204 L 4080.53 3013.5504 L 4079.8 3014.6404 L 4076.16 3018.2704 L 4081.25 3018.2704 M 4083.65 3010.6404 L 4086.56 3018.2704 M 4089.47 3010.6404 L 4086.56 3018.2704" fill="none" stroke-width="0.8"/></g><g c_partid="part_pcbtext" c_etype="" c_origin="4083,3142" c_rotation="0" c_mirror="0" id="gge36" locked="0" layerid="3" c_shapetype="group"><path c_fontsize="4.5" c_fontfamily="" c_text="C2" d="M 4086.07 3140.57 L 4085.86 3140.16 L 4085.45 3139.75 L 4085.05 3139.55 L 4084.23 3139.55 L 4083.82 3139.75 L 4083.41 3140.16 L 4083.2 3140.57 L 4083 3141.18 L 4083 3142.2 L 4083.2 3142.82 L 4083.41 3143.23 L 4083.82 3143.64 L 4084.23 3143.84 L 4085.05 3143.84 L 4085.45 3143.64 L 4085.86 3143.23 L 4086.07 3142.82 M 4087.62 3140.57 L 4087.62 3140.36 L 4087.83 3139.95 L 4088.03 3139.75 L 4088.44 3139.55 L 4089.26 3139.55 L 4089.67 3139.75 L 4089.87 3139.95 L 4090.08 3140.36 L 4090.08 3140.77 L 4089.87 3141.18 L 4089.46 3141.8 L 4087.42 3143.84 L 4090.28 3143.84" fill="none" stroke-width="0.7" c_note="note_pre"/></g><g c_partid="part_pcbtext" c_etype="" c_origin="4077.1,3123.7" c_rotation="0" c_mirror="0" id="gge37" locked="0" layerid="3" c_shapetype="group" display="none"><path c_fontsize="4.5" c_fontfamily="" c_text="100n" d="M 4077.1 3122.06 L 4077.51 3121.86 L 4078.12 3121.25 L 4078.12 3125.54 M 4080.7 3121.25 L 4080.09 3121.45 L 4079.68 3122.06 L 4079.47 3123.09 L 4079.47 3123.7 L 4079.68 3124.72 L 4080.09 3125.34 L 4080.7 3125.54 L 4081.11 3125.54 L 4081.72 3125.34 L 4082.13 3124.72 L 4082.34 3123.7 L 4082.34 3123.09 L 4082.13 3122.06 L 4081.72 3121.45 L 4081.11 3121.25 L 4080.7 3121.25 M 4084.91 3121.25 L 4084.3 3121.45 L 4083.89 3122.06 L 4083.69 3123.09 L 4083.69 3123.7 L 4083.89 3124.72 L 4084.3 3125.34 L 4084.91 3125.54 L 4085.32 3125.54 L 4085.94 3125.34 L 4086.35 3124.72 L 4086.55 3123.7 L 4086.55 3123.09 L 4086.35 3122.06 L 4085.94 3121.45 L 4085.32 3121.25 L 4084.91 3121.25 M 4087.9 3122.68 L 4087.9 3125.54 M 4087.9 3123.5 L 4088.51 3122.88 L 4088.92 3122.68 L 4089.54 3122.68 L 4089.95 3122.88 L 4090.15 3123.5 L 4090.15 3125.54" fill="none" stroke-width="0.5" c_note="note_name"/></g><g c_partid="part_pcbtext" c_etype="" c_origin="4069.1,3155.7" c_rotation="0" c_mirror="0" id="gge42" locked="0" layerid="3" c_shapetype="group"><path c_fontsize="4.5" c_fontfamily="" c_text="C3" d="M 4072.17 3154.27 L 4071.96 3153.86 L 4071.55 3153.45 L 4071.15 3153.25 L 4070.33 3153.25 L 4069.92 3153.45 L 4069.51 3153.86 L 4069.3 3154.27 L 4069.1 3154.88 L 4069.1 3155.9 L 4069.3 3156.52 L 4069.51 3156.93 L 4069.92 3157.34 L 4070.33 3157.54 L 4071.15 3157.54 L 4071.55 3157.34 L 4071.96 3156.93 L 4072.17 3156.52 M 4073.93 3153.25 L 4076.18 3153.25 L 4074.95 3154.88 L 4075.56 3154.88 L 4075.97 3155.09 L 4076.18 3155.29 L 4076.38 3155.9 L 4076.38 3156.31 L 4076.18 3156.93 L 4075.77 3157.34 L 4075.15 3157.54 L 4074.54 3157.54 L 4073.93 3157.34 L 4073.72 3157.13 L 4073.52 3156.72" fill="none" stroke-width="0.7" c_note="note_pre"/></g><g c_partid="part_pcbtext" c_etype="" c_origin="4069.1,3147.7" c_rotation="0" c_mirror="0" id="gge43" locked="0" layerid="3" c_shapetype="group" display="none"><path c_fontsize="4.5" c_fontfamily="" c_text="10n" d="M 4069.1 3146.06 L 4069.51 3145.86 L 4070.12 3145.25 L 4070.12 3149.54 M 4072.7 3145.25 L 4072.09 3145.45 L 4071.68 3146.06 L 4071.47 3147.09 L 4071.47 3147.7 L 4071.68 3148.72 L 4072.09 3149.34 L 4072.7 3149.54 L 4073.11 3149.54 L 4073.72 3149.34 L 4074.13 3148.72 L 4074.34 3147.7 L 4074.34 3147.09 L 4074.13 3146.06 L 4073.72 3145.45 L 4073.11 3145.25 L 4072.7 3145.25 M 4075.69 3146.68 L 4075.69 3149.54 M 4075.69 3147.5 L 4076.3 3146.88 L 4076.71 3146.68 L 4077.32 3146.68 L 4077.73 3146.88 L 4077.94 3147.5 L 4077.94 3149.54" fill="none" stroke-width="0.5" c_note="note_name"/></g><g c_partid="part_pcbtext" c_etype="" c_origin="4168,3090.9" c_rotation="90" c_mirror="0" id="gge48" locked="0" layerid="3" c_shapetype="group" display="none"><path c_fontsize="4.5" c_fontfamily="" c_text="J1" d="M 4165.55 3088.85 L 4168.82 3088.85 L 4169.43 3089.06 L 4169.64 3089.26 L 4169.84 3089.67 L 4169.84 3090.08 L 4169.64 3090.49 L 4169.43 3090.7 L 4168.82 3090.9 L 4168.41 3090.9 M 4166.36 3087.5 L 4166.16 3087.1 L 4165.55 3086.48 L 4169.84 3086.48" fill="none" stroke-width="0.7" c_note="note_pre"/></g><g c_partid="part_pcbtext" c_etype="" c_origin="4176,3090.9" c_rotation="270" c_mirror="0" id="gge49" locked="0" layerid="3" c_shapetype="group" display="none"><path c_fontsize="4.5" c_fontfamily="" c_text="B" d="M 4178.45 3090.9 L 4174.16 3090.9 M 4178.45 3090.9 L 4178.45 3092.74 L 4178.25 3093.35 L 4178.05 3093.56 L 4177.64 3093.76 L 4177.23 3093.76 L 4176.82 3093.56 L 4176.61 3093.35 L 4176.41 3092.74 M 4176.41 3090.9 L 4176.41 3092.74 L 4176.2 3093.35 L 4176 3093.56 L 4175.59 3093.76 L 4174.98 3093.76 L 4174.57 3093.56 L 4174.36 3093.35 L 4174.16 3092.74 L 4174.16 3090.9" fill="none" stroke-width="0.5" c_note="note_name"/></g><g c_partid="part_pcbtext" c_etype="" c_origin="4168,3117.9" c_rotation="90" c_mirror="0" id="gge58" locked="0" layerid="3" c_shapetype="group" display="none"><path c_fontsize="4.5" c_fontfamily="" c_text="J2" d="M 4165.55 3115.85 L 4168.82 3115.85 L 4169.43 3116.06 L 4169.64 3116.26 L 4169.84 3116.67 L 4169.84 3117.08 L 4169.64 3117.49 L 4169.43 3117.7 L 4168.82 3117.9 L 4168.41 3117.9 M 4166.57 3114.3 L 4166.36 3114.3 L 4165.95 3114.1 L 4165.75 3113.89 L 4165.55 3113.48 L 4165.55 3112.66 L 4165.75 3112.25 L 4165.95 3112.05 L 4166.36 3111.85 L 4166.77 3111.85 L 4167.18 3112.05 L 4167.8 3112.46 L 4169.84 3114.5 L 4169.84 3111.64" fill="none" stroke-width="0.7" c_note="note_pre"/></g><g c_partid="part_pcbtext" c_etype="" c_origin="4176,3117.9" c_rotation="270" c_mirror="0" id="gge59" locked="0" layerid="3" c_shapetype="group" display="none"><path c_fontsize="4.5" c_fontfamily="" c_text="A" d="M 4178.45 3119.54 L 4174.16 3117.9 M 4178.45 3119.54 L 4174.16 3121.17 M 4175.59 3118.51 L 4175.59 3120.56" fill="none" stroke-width="0.5" c_note="note_name"/></g><g c_partid="part_pcbtext" c_etype="" c_origin="4095,3263.449" c_rotation="0" c_mirror="0" id="gge68" locked="0" layerid="3" c_shapetype="group"><path c_fontsize="4.5" c_fontfamily="" c_text="P1" d="M 4095 3260.9992 L 4095 3265.2892 M 4095 3260.9992 L 4096.84 3260.9992 L 4097.45 3261.1992 L 4097.66 3261.3992 L 4097.86 3261.8092 L 4097.86 3262.4292 L 4097.66 3262.8392 L 4097.45 3263.0392 L 4096.84 3263.2492 L 4095 3263.2492 M 4099.21 3261.8092 L 4099.62 3261.6092 L 4100.24 3260.9992 L 4100.24 3265.2892" fill="none" stroke-width="0.7" c_note="note_pre"/></g><g c_partid="part_pcbtext" c_etype="" c_origin="4087,3247" c_rotation="0" c_mirror="0" id="gge69" locked="0" layerid="3" c_shapetype="group" display="none"><path c_fontsize="4.5" c_fontfamily="" c_text="B10K" d="M 4087 3244.55 L 4087 3248.84 M 4087 3244.55 L 4088.84 3244.55 L 4089.45 3244.75 L 4089.66 3244.95 L 4089.86 3245.36 L 4089.86 3245.77 L 4089.66 3246.18 L 4089.45 3246.39 L 4088.84 3246.59 M 4087 3246.59 L 4088.84 3246.59 L 4089.45 3246.8 L 4089.66 3247 L 4089.86 3247.41 L 4089.86 3248.02 L 4089.66 3248.43 L 4089.45 3248.64 L 4088.84 3248.84 L 4087 3248.84 M 4091.21 3245.36 L 4091.62 3245.16 L 4092.24 3244.55 L 4092.24 3248.84 M 4094.81 3244.55 L 4094.2 3244.75 L 4093.79 3245.36 L 4093.59 3246.39 L 4093.59 3247 L 4093.79 3248.02 L 4094.2 3248.64 L 4094.81 3248.84 L 4095.22 3248.84 L 4095.84 3248.64 L 4096.25 3248.02 L 4096.45 3247 L 4096.45 3246.39 L 4096.25 3245.36 L 4095.84 3244.75 L 4095.22 3244.55 L 4094.81 3244.55 M 4097.8 3244.55 L 4097.8 3248.84 M 4100.66 3244.55 L 4097.8 3247.41 M 4098.82 3246.39 L 4100.66 3248.84" fill="none" stroke-width="0.5" c_note="note_name"/></g><g c_partid="part_pcbtext" c_etype="" c_origin="4062,3228.451" c_rotation="0" c_mirror="0" id="gge75" locked="0" layerid="3" c_shapetype="group"><path c_fontsize="4.5" c_fontfamily="" c_text="P2" d="M 4062 3226.0008 L 4062 3230.2908 M 4062 3226.0008 L 4063.84 3226.0008 L 4064.45 3226.2008 L 4064.66 3226.4008 L 4064.86 3226.8108 L 4064.86 3227.4308 L 4064.66 3227.8408 L 4064.45 3228.0408 L 4063.84 3228.2508 L 4062 3228.2508 M 4066.42 3227.0208 L 4066.42 3226.8108 L 4066.62 3226.4008 L 4066.83 3226.2008 L 4067.24 3226.0008 L 4068.05 3226.0008 L 4068.46 3226.2008 L 4068.67 3226.4008 L 4068.87 3226.8108 L 4068.87 3227.2208 L 4068.67 3227.6308 L 4068.26 3228.2508 L 4066.21 3230.2908 L 4069.08 3230.2908" fill="none" stroke-width="0.7" c_note="note_pre"/></g><g c_partid="part_pcbtext" c_etype="" c_origin="4065,3220.4" c_rotation="0" c_mirror="0" id="gge76" locked="0" layerid="3" c_shapetype="group" display="none"><path c_fontsize="4.5" c_fontfamily="" c_text="SIG" d="M 4067.86 3218.56 L 4067.45 3218.15 L 4066.84 3217.95 L 4066.02 3217.95 L 4065.41 3218.15 L 4065 3218.56 L 4065 3218.97 L 4065.2 3219.38 L 4065.41 3219.58 L 4065.82 3219.79 L 4067.05 3220.2 L 4067.45 3220.4 L 4067.66 3220.6 L 4067.86 3221.01 L 4067.86 3221.63 L 4067.45 3222.04 L 4066.84 3222.24 L 4066.02 3222.24 L 4065.41 3222.04 L 4065 3221.63 M 4069.21 3217.95 L 4069.21 3222.24 M 4073.63 3218.97 L 4073.43 3218.56 L 4073.02 3218.15 L 4072.61 3217.95 L 4071.79 3217.95 L 4071.38 3218.15 L 4070.97 3218.56 L 4070.77 3218.97 L 4070.56 3219.58 L 4070.56 3220.6 L 4070.77 3221.22 L 4070.97 3221.63 L 4071.38 3222.04 L 4071.79 3222.24 L 4072.61 3222.24 L 4073.02 3222.04 L 4073.43 3221.63 L 4073.63 3221.22 L 4073.63 3220.6 M 4072.61 3220.6 L 4073.63 3220.6" fill="none" stroke-width="0.5" c_note="note_name"/></g><g c_partid="part_pcbtext" c_etype="" c_origin="4030,3149.449" c_rotation="0" c_mirror="0" id="gge81" locked="0" layerid="3" c_shapetype="group"><path c_fontsize="4.5" c_fontfamily="" c_text="R1" d="M 4030 3146.9996 L 4030 3151.2896 M 4030 3146.9996 L 4031.84 3146.9996 L 4032.45 3147.1996 L 4032.66 3147.3996 L 4032.86 3147.8096 L 4032.86 3148.2196 L 4032.66 3148.6296 L 4032.45 3148.8396 L 4031.84 3149.0396 L 4030 3149.0396 M 4031.43 3149.0396 L 4032.86 3151.2896 M 4034.21 3147.8096 L 4034.62 3147.6096 L 4035.24 3146.9996 L 4035.24 3151.2896" fill="none" stroke-width="0.7" c_note="note_pre"/></g><g c_partid="part_pcbtext" c_etype="" c_origin="4033,3158" c_rotation="180" c_mirror="0" id="gge82" locked="0" layerid="3" c_shapetype="group" display="none"><path c_fontsize="4.5" c_fontfamily="" c_text="100k" d="M 4033 3159.64 L 4032.59 3159.84 L 4031.98 3160.45 L 4031.98 3156.16 M 4029.4 3160.45 L 4030.01 3160.25 L 4030.42 3159.64 L 4030.63 3158.61 L 4030.63 3158 L 4030.42 3156.98 L 4030.01 3156.36 L 4029.4 3156.16 L 4028.99 3156.16 L 4028.38 3156.36 L 4027.97 3156.98 L 4027.76 3158 L 4027.76 3158.61 L 4027.97 3159.64 L 4028.38 3160.25 L 4028.99 3160.45 L 4029.4 3160.45 M 4025.19 3160.45 L 4025.8 3160.25 L 4026.21 3159.64 L 4026.41 3158.61 L 4026.41 3158 L 4026.21 3156.98 L 4025.8 3156.36 L 4025.19 3156.16 L 4024.78 3156.16 L 4024.16 3156.36 L 4023.75 3156.98 L 4023.55 3158 L 4023.55 3158.61 L 4023.75 3159.64 L 4024.16 3160.25 L 4024.78 3160.45 L 4025.19 3160.45 M 4022.2 3160.45 L 4022.2 3156.16 M 4020.15 3159.02 L 4022.2 3156.98 M 4021.38 3157.8 L 4019.95 3156.16" fill="none" stroke-width="0.5" c_note="note_name"/></g><g c_partid="part_pcbtext" c_etype="" c_origin="4028,3247.449" c_rotation="0" c_mirror="0" id="gge90" locked="0" layerid="3" c_shapetype="group"><path c_fontsize="4.5" c_fontfamily="" c_text="R2" d="M 4027.9998 3244.9996 L 4027.9998 3249.2896 M 4027.9998 3244.9996 L 4029.8398 3244.9996 L 4030.4498 3245.1996 L 4030.6598 3245.3996 L 4030.8598 3245.8096 L 4030.8598 3246.2196 L 4030.6598 3246.6296 L 4030.4498 3246.8396 L 4029.8398 3247.0396 L 4027.9998 3247.0396 M 4029.4298 3247.0396 L 4030.8598 3249.2896 M 4032.4198 3246.0196 L 4032.4198 3245.8096 L 4032.6198 3245.3996 L 4032.8298 3245.1996 L 4033.2398 3244.9996 L 4034.0498 3244.9996 L 4034.4598 3245.1996 L 4034.6698 3245.3996 L 4034.8698 3245.8096 L 4034.8698 3246.2196 L 4034.6698 3246.6296 L 4034.2598 3247.2496 L 4032.2098 3249.2896 L 4035.0798 3249.2896" fill="none" stroke-width="0.7" c_note="note_pre"/></g><g c_partid="part_pcbtext" c_etype="" c_origin="3991,3295" c_rotation="180" c_mirror="0" id="gge91" locked="0" layerid="3" c_shapetype="group" display="none"><path c_fontsize="4.5" c_fontfamily="" c_text="1k" d="M 3991 3296.64 L 3990.59 3296.84 L 3989.98 3297.45 L 3989.98 3293.16 M 3988.63 3297.45 L 3988.63 3293.16 M 3986.58 3296.02 L 3988.63 3293.98 M 3987.81 3294.8 L 3986.38 3293.16" fill="none" stroke-width="0.5" c_note="note_name"/></g><g c_partid="part_pcbtext" c_etype="" c_origin="4082.449,3217.239" c_rotation="90" c_mirror="0" id="gge99" locked="0" layerid="3" c_shapetype="group"><path c_fontsize="4.5" c_fontfamily="" c_text="S1" d="M 4080.6092 3214.3787 L 4080.1992 3214.7887 L 4079.9992 3215.3987 L 4079.9992 3216.2187 L 4080.1992 3216.8287 L 4080.6092 3217.2387 L 4081.0192 3217.2387 L 4081.4292 3217.0387 L 4081.6292 3216.8287 L 4081.8392 3216.4187 L 4082.2492 3215.1887 L 4082.4492 3214.7887 L 4082.6492 3214.5787 L 4083.0592 3214.3787 L 4083.6792 3214.3787 L 4084.0892 3214.7887 L 4084.2892 3215.3987 L 4084.2892 3216.2187 L 4084.0892 3216.8287 L 4083.6792 3217.2387 M 4080.8092 3213.0287 L 4080.6092 3212.6187 L 4079.9992 3211.9987 L 4084.2892 3211.9987" fill="none" stroke-width="0.7" c_note="note_pre"/></g><g c_partid="part_pcbtext" c_etype="" c_origin="4074,3211.641" c_rotation="90" c_mirror="0" id="gge100" locked="0" layerid="3" c_shapetype="group" display="none"><path c_fontsize="4.5" c_fontfamily="" c_text="DIR" d="M 4071.55 3211.641 L 4075.84 3211.641 M 4071.55 3211.641 L 4071.55 3210.211 L 4071.75 3209.591 L 4072.16 3209.191 L 4072.57 3208.981 L 4073.18 3208.781 L 4074.2 3208.781 L 4074.82 3208.981 L 4075.23 3209.191 L 4075.64 3209.591 L 4075.84 3210.211 L 4075.84 3211.641 M 4071.55 3207.431 L 4075.84 3207.431 M 4071.55 3206.081 L 4075.84 3206.081 M 4071.55 3206.081 L 4071.55 3204.241 L 4071.75 3203.621 L 4071.95 3203.421 L 4072.36 3203.211 L 4072.77 3203.211 L 4073.18 3203.421 L 4073.39 3203.621 L 4073.59 3204.241 L 4073.59 3206.081 M 4073.59 3204.641 L 4075.84 3203.211" fill="none" stroke-width="0.5" c_note="note_name"/></g><g c_partid="part_pcbtext" c_etype="" c_origin="4148.449,3216.079" c_rotation="90" c_mirror="0" id="gge112" locked="0" layerid="3" c_shapetype="group"><path c_fontsize="4.5" c_fontfamily="" c_text="S2" d="M 4146.6092 3213.2185 L 4146.1992 3213.6285 L 4145.9992 3214.2385 L 4145.9992 3215.0585 L 4146.1992 3215.6685 L 4146.6092 3216.0785 L 4147.0192 3216.0785 L 4147.4292 3215.8785 L 4147.6292 3215.6685 L 4147.8392 3215.2585 L 4148.2492 3214.0285 L 4148.4492 3213.6285 L 4148.6492 3213.4185 L 4149.0592 3213.2185 L 4149.6792 3213.2185 L 4150.0892 3213.6285 L 4150.2892 3214.2385 L 4150.2892 3215.0585 L 4150.0892 3215.6685 L 4149.6792 3216.0785 M 4147.0192 3211.6585 L 4146.8092 3211.6585 L 4146.3992 3211.4585 L 4146.1992 3211.2485 L 4145.9992 3210.8385 L 4145.9992 3210.0285 L 4146.1992 3209.6185 L 4146.3992 3209.4085 L 4146.8092 3209.2085 L 4147.2192 3209.2085 L 4147.6292 3209.4085 L 4148.2492 3209.8185 L 4150.2892 3211.8685 L 4150.2892 3208.9985" fill="none" stroke-width="0.7" c_note="note_pre"/></g><g c_partid="part_pcbtext" c_etype="" c_origin="4156,3211.641" c_rotation="270" c_mirror="0" id="gge113" locked="0" layerid="3" c_shapetype="group" display="none"><path c_fontsize="4.5" c_fontfamily="" c_text="ENA" d="M 4158.45 3211.641 L 4154.16 3211.641 M 4158.45 3211.641 L 4158.45 3214.301 M 4156.41 3211.641 L 4156.41 3213.281 M 4154.16 3211.641 L 4154.16 3214.301 M 4158.45 3215.651 L 4154.16 3215.651 M 4158.45 3215.651 L 4154.16 3218.511 M 4158.45 3218.511 L 4154.16 3218.511 M 4158.45 3221.501 L 4154.16 3219.861 M 4158.45 3221.501 L 4154.16 3223.141 M 4155.59 3220.481 L 4155.59 3222.521" fill="none" stroke-width="0.5" c_note="note_name"/></g><g c_partid="part_pcbtext" c_etype="" c_origin="4025,3195" c_rotation="90" c_mirror="0" id="gge125" locked="0" layerid="3" c_shapetype="group" display="none"><path c_fontsize="4.5" c_fontfamily="" c_text="U1" d="M 4022.55 3195 L 4025.61 3195 L 4026.23 3194.8 L 4026.64 3194.39 L 4026.84 3193.77 L 4026.84 3193.36 L 4026.64 3192.75 L 4026.23 3192.34 L 4025.61 3192.14 L 4022.55 3192.14 M 4023.36 3190.79 L 4023.16 3190.38 L 4022.55 3189.76 L 4026.84 3189.76" fill="none" stroke-width="0.7" c_note="note_pre"/></g><g c_partid="part_pcbtext" c_etype="" c_origin="4040.449,3194.731" c_rotation="0" c_mirror="0" id="gge126" locked="0" layerid="3" c_shapetype="group"><path c_fontsize="4.5" c_fontfamily="" c_text="NE555P" d="M 4040.4492 3192.2805 L 4040.4492 3196.5705 M 4040.4492 3192.2805 L 4043.3092 3196.5705 M 4043.3092 3192.2805 L 4043.3092 3196.5705 M 4044.6592 3192.2805 L 4044.6592 3196.5705 M 4044.6592 3192.2805 L 4047.3192 3192.2805 M 4044.6592 3194.3205 L 4046.2992 3194.3205 M 4044.6592 3196.5705 L 4047.3192 3196.5705 M 4051.1292 3192.2805 L 4049.0792 3192.2805 L 4048.8792 3194.1205 L 4049.0792 3193.9105 L 4049.6992 3193.7105 L 4050.3092 3193.7105 L 4050.9192 3193.9105 L 4051.3292 3194.3205 L 4051.5392 3194.9305 L 4051.5392 3195.3405 L 4051.3292 3195.9605 L 4050.9192 3196.3705 L 4050.3092 3196.5705 L 4049.6992 3196.5705 L 4049.0792 3196.3705 L 4048.8792 3196.1605 L 4048.6692 3195.7505 M 4055.3392 3192.2805 L 4053.2992 3192.2805 L 4053.0892 3194.1205 L 4053.2992 3193.9105 L 4053.9092 3193.7105 L 4054.5192 3193.7105 L 4055.1392 3193.9105 L 4055.5492 3194.3205 L 4055.7492 3194.9305 L 4055.7492 3195.3405 L 4055.5492 3195.9605 L 4055.1392 3196.3705 L 4054.5192 3196.5705 L 4053.9092 3196.5705 L 4053.2992 3196.3705 L 4053.0892 3196.1605 L 4052.8892 3195.7505 M 4059.5492 3192.2805 L 4057.5092 3192.2805 L 4057.2992 3194.1205 L 4057.5092 3193.9105 L 4058.1192 3193.7105 L 4058.7392 3193.7105 L 4059.3492 3193.9105 L 4059.7592 3194.3205 L 4059.9592 3194.9305 L 4059.9592 3195.3405 L 4059.7592 3195.9605 L 4059.3492 3196.3705 L 4058.7392 3196.5705 L 4058.1192 3196.5705 L 4057.5092 3196.3705 L 4057.2992 3196.1605 L 4057.0992 3195.7505 M 4061.3092 3192.2805 L 4061.3092 3196.5705 M 4061.3092 3192.2805 L 4063.1492 3192.2805 L 4063.7692 3192.4805 L 4063.9692 3192.6805 L 4064.1792 3193.0905 L 4064.1792 3193.7105 L 4063.9692 3194.1205 L 4063.7692 3194.3205 L 4063.1492 3194.5305 L 4061.3092 3194.5305" fill="none" stroke-width="0.5" c_note="note_name"/></g><g c_partid="part_pcbtext" c_etype="" c_origin="4046,3033" c_rotation="0" c_mirror="0" id="gge142" locked="0" layerid="3" c_shapetype="group" display="none"><path c_fontsize="4.5" c_fontfamily="" c_text="J3" d="M 4048.05 3030.55 L 4048.05 3033.82 L 4047.84 3034.43 L 4047.64 3034.64 L 4047.23 3034.84 L 4046.82 3034.84 L 4046.41 3034.64 L 4046.2 3034.43 L 4046 3033.82 L 4046 3033.41 M 4049.8 3030.55 L 4052.05 3030.55 L 4050.83 3032.18 L 4051.44 3032.18 L 4051.85 3032.39 L 4052.05 3032.59 L 4052.26 3033.2 L 4052.26 3033.61 L 4052.05 3034.23 L 4051.65 3034.64 L 4051.03 3034.84 L 4050.42 3034.84 L 4049.8 3034.64 L 4049.6 3034.43 L 4049.4 3034.02" fill="none" stroke-width="0.7" c_note="note_pre"/></g><g c_partid="part_pcbtext" c_etype="" c_origin="4046,3041" c_rotation="180" c_mirror="0" id="gge143" locked="0" layerid="3" c_shapetype="group" display="none"><path c_fontsize="4.5" c_fontfamily="" c_text="12V IN" d="M 4046 3042.64 L 4045.59 3042.84 L 4044.98 3043.45 L 4044.98 3039.16 M 4043.42 3042.43 L 4043.42 3042.64 L 4043.22 3043.05 L 4043.01 3043.25 L 4042.6 3043.45 L 4041.79 3043.45 L 4041.38 3043.25 L 4041.17 3043.05 L 4040.97 3042.64 L 4040.97 3042.23 L 4041.17 3041.82 L 4041.58 3041.2 L 4043.63 3039.16 L 4040.76 3039.16 M 4039.41 3043.45 L 4037.78 3039.16 M 4036.14 3043.45 L 4037.78 3039.16 M 4031.64 3043.45 L 4031.64 3039.16 M 4030.29 3043.45 L 4030.29 3039.16 M 4030.29 3043.45 L 4027.43 3039.16 M 4027.43 3043.45 L 4027.43 3039.16" fill="none" stroke-width="0.5" c_note="note_name"/></g><g c_partid="part_pcbtext" c_etype="" c_origin="4016,3180.454" c_rotation="0" c_mirror="0" id="gge152" locked="0" layerid="3" c_shapetype="group"><path c_fontsize="4.5" c_fontfamily="" c_text="C1" d="M 4019.07 3179.0197 L 4018.86 3178.6097 L 4018.45 3178.1997 L 4018.05 3177.9997 L 4017.23 3177.9997 L 4016.82 3178.1997 L 4016.41 3178.6097 L 4016.2 3179.0197 L 4016 3179.6397 L 4016 3180.6597 L 4016.2 3181.2697 L 4016.41 3181.6797 L 4016.82 3182.0897 L 4017.23 3182.2997 L 4018.05 3182.2997 L 4018.45 3182.0897 L 4018.86 3181.6797 L 4019.07 3181.2697 M 4020.42 3178.8197 L 4020.83 3178.6097 L 4021.44 3177.9997 L 4021.44 3182.2997" fill="none" stroke-width="0.6" c_note="note_pre"/></g><g c_partid="part_pcbtext" c_etype="" c_origin="4018,3172" c_rotation="0" c_mirror="0" id="gge154" locked="0" layerid="3" c_shapetype="group" display="none"><path c_fontsize="4.5" c_fontfamily="" c_text="2.2u" d="M 4018.2 3170.57L4018.2 3170.36 L4018.41 3169.95 L4018.61 3169.75 L4019.02 3169.55 L4019.84 3169.55 L4020.25 3169.75 L4020.45 3169.95 L4020.66 3170.36 L4020.66 3170.77 L4020.45 3171.18 L4020.05 3171.8 L4018 3173.84 L4020.86 3173.84 M 4022.42 3172.82L4022.21 3173.02 L4022.42 3173.23 L4022.62 3173.02 L4022.42 3172.82 M 4024.18 3170.57L4024.18 3170.36 L4024.38 3169.95 L4024.59 3169.75 L4025 3169.55 L4025.81 3169.55 L4026.22 3169.75 L4026.43 3169.95 L4026.63 3170.36 L4026.63 3170.77 L4026.43 3171.18 L4026.02 3171.8 L4023.97 3173.84 L4026.84 3173.84 M 4028.19 3170.98L4028.19 3173.02 L4028.39 3173.64 L4028.8 3173.84 L4029.41 3173.84 L4029.82 3173.64 L4030.44 3173.02 M 4030.44 3170.98L4030.44 3173.84 " fill="none" stroke-width="0.5" c_note="note_name"/></g><g c_partid="part_pcbtext" c_etype="" c_origin="4160,3051.454" c_rotation="0" c_mirror="0" id="gge170" locked="0" layerid="3" c_shapetype="group"><path c_fontsize="4.5" c_fontfamily="" c_text="C4" d="M 4163.07 3050.0197 L 4162.86 3049.6097 L 4162.45 3049.1997 L 4162.05 3048.9997 L 4161.23 3048.9997 L 4160.82 3049.1997 L 4160.41 3049.6097 L 4160.2 3050.0197 L 4160 3050.6397 L 4160 3051.6597 L 4160.2 3052.2697 L 4160.41 3052.6797 L 4160.82 3053.0897 L 4161.23 3053.2997 L 4162.05 3053.2997 L 4162.45 3053.0897 L 4162.86 3052.6797 L 4163.07 3052.2697 M 4166.46 3048.9997 L 4164.42 3051.8597 L 4167.49 3051.8597 M 4166.46 3048.9997 L 4166.46 3053.2997" fill="none" stroke-width="0.6" c_note="note_pre"/></g><g c_partid="part_pcbtext" c_etype="" c_origin="4150,3028" c_rotation="0" c_mirror="0" id="gge172" locked="0" layerid="3" c_shapetype="group" display="none"><path c_fontsize="4.5" c_fontfamily="" c_text="47u" d="M 4152.05 3025.55L4150 3028.41 L4153.07 3028.41 M 4152.05 3025.55L4152.05 3029.84 M 4157.28 3025.55L4155.24 3029.84 M 4154.42 3025.55L4157.28 3025.55 M 4158.63 3026.98L4158.63 3029.02 L4158.84 3029.64 L4159.25 3029.84 L4159.86 3029.84 L4160.27 3029.64 L4160.88 3029.02 M 4160.88 3026.98L4160.88 3029.84 " fill="none" stroke-width="0.5" c_note="note_name"/></g><g c_partid="part_pcbtext" c_etype="" c_origin="4113,3029.211" c_rotation="0" c_mirror="0" id="gge188" locked="0" layerid="3" c_shapetype="group" display="none"><path c_fontsize="4.5" c_fontfamily="" c_text="U2" d="M 4113 3026.76 L 4113 3029.82 L 4113.2 3030.44 L 4113.61 3030.85 L 4114.23 3031.05 L 4114.64 3031.05 L 4115.25 3030.85 L 4115.66 3030.44 L 4115.86 3029.82 L 4115.86 3026.76 M 4117.42 3027.78 L 4117.42 3027.57 L 4117.62 3027.17 L 4117.83 3026.96 L 4118.24 3026.76 L 4119.05 3026.76 L 4119.46 3026.96 L 4119.67 3027.17 L 4119.87 3027.57 L 4119.87 3027.98 L 4119.67 3028.39 L 4119.26 3029.01 L 4117.21 3031.05 L 4120.08 3031.05" fill="none" stroke-width="0.6" c_note="note_pre"/></g><g c_partid="part_pcbtext" c_etype="" c_origin="4111,3091.449" c_rotation="90" c_mirror="0" id="gge190" locked="0" layerid="3" c_shapetype="group"><path c_fontsize="4.5" c_fontfamily="" c_text="A4988" d="M 4108.55 3089.8092 L 4112.84 3091.4492 M 4108.55 3089.8092 L 4112.84 3088.1792 M 4111.41 3090.8392 L 4111.41 3088.7892 M 4108.55 3084.7792 L 4111.41 3086.8292 L 4111.41 3083.7592 M 4108.55 3084.7792 L 4112.84 3084.7792 M 4109.98 3079.7492 L 4110.59 3079.9492 L 4111 3080.3592 L 4111.2 3080.9792 L 4111.2 3081.1792 L 4111 3081.7992 L 4110.59 3082.1992 L 4109.98 3082.4092 L 4109.77 3082.4092 L 4109.16 3082.1992 L 4108.75 3081.7992 L 4108.55 3081.1792 L 4108.55 3080.9792 L 4108.75 3080.3592 L 4109.16 3079.9492 L 4109.98 3079.7492 L 4111 3079.7492 L 4112.02 3079.9492 L 4112.64 3080.3592 L 4112.84 3080.9792 L 4112.84 3081.3892 L 4112.64 3081.9992 L 4112.23 3082.1992 M 4108.55 3077.3792 L 4108.75 3077.9892 L 4109.16 3078.1992 L 4109.57 3078.1992 L 4109.98 3077.9892 L 4110.18 3077.5792 L 4110.39 3076.7592 L 4110.59 3076.1492 L 4111 3075.7392 L 4111.41 3075.5392 L 4112.02 3075.5392 L 4112.43 3075.7392 L 4112.64 3075.9492 L 4112.84 3076.5592 L 4112.84 3077.3792 L 4112.64 3077.9892 L 4112.43 3078.1992 L 4112.02 3078.3992 L 4111.41 3078.3992 L 4111 3078.1992 L 4110.59 3077.7892 L 4110.39 3077.1692 L 4110.18 3076.3492 L 4109.98 3075.9492 L 4109.57 3075.7392 L 4109.16 3075.7392 L 4108.75 3075.9492 L 4108.55 3076.5592 L 4108.55 3077.3792 M 4108.55 3073.1592 L 4108.75 3073.7792 L 4109.16 3073.9792 L 4109.57 3073.9792 L 4109.98 3073.7792 L 4110.18 3073.3692 L 4110.39 3072.5492 L 4110.59 3071.9392 L 4111 3071.5292 L 4111.41 3071.3192 L 4112.02 3071.3192 L 4112.43 3071.5292 L 4112.64 3071.7292 L 4112.84 3072.3492 L 4112.84 3073.1592 L 4112.64 3073.7792 L 4112.43 3073.9792 L 4112.02 3074.1892 L 4111.41 3074.1892 L 4111 3073.9792 L 4110.59 3073.5692 L 4110.39 3072.9592 L 4110.18 3072.1392 L 4109.98 3071.7292 L 4109.57 3071.5292 L 4109.16 3071.5292 L 4108.75 3071.7292 L 4108.55 3072.3492 L 4108.55 3073.1592" fill="none" stroke-width="0.5" c_note="note_name"/></g><g c_partid="part_pcbtext" c_etype="" c_origin="4091,3058" c_rotation="0" c_mirror="0" id="gge192" locked="0" layerid="3" c_shapetype="group"><path c_fontsize="4" c_fontfamily="" c_text="MS1" d="M 4091 3055.82 L 4091 3059.64 M 4091 3055.82 L 4092.45 3059.64 M 4093.91 3055.82 L 4092.45 3059.64 M 4093.91 3055.82 L 4093.91 3059.64 M 4097.65 3056.36 L 4097.29 3056 L 4096.75 3055.82 L 4096.02 3055.82 L 4095.47 3056 L 4095.11 3056.36 L 4095.11 3056.73 L 4095.29 3057.09 L 4095.47 3057.27 L 4095.84 3057.45 L 4096.93 3057.82 L 4097.29 3058 L 4097.47 3058.18 L 4097.65 3058.55 L 4097.65 3059.09 L 4097.29 3059.45 L 4096.75 3059.64 L 4096.02 3059.64 L 4095.47 3059.45 L 4095.11 3059.09 M 4098.85 3056.55 L 4099.22 3056.36 L 4099.76 3055.82 L 4099.76 3059.64" fill="none" stroke-width="0.8"/></g><g c_partid="part_pcbtext" c_etype="" c_origin="4091,3068" c_rotation="0" c_mirror="0" id="gge194" locked="0" layerid="3" c_shapetype="group"><path c_fontsize="4" c_fontfamily="" c_text="MS2" d="M 4091 3065.82 L 4091 3069.64 M 4091 3065.82 L 4092.45 3069.64 M 4093.91 3065.82 L 4092.45 3069.64 M 4093.91 3065.82 L 4093.91 3069.64 M 4097.65 3066.36 L 4097.29 3066 L 4096.75 3065.82 L 4096.02 3065.82 L 4095.47 3066 L 4095.11 3066.36 L 4095.11 3066.73 L 4095.29 3067.09 L 4095.47 3067.27 L 4095.84 3067.45 L 4096.93 3067.82 L 4097.29 3068 L 4097.47 3068.18 L 4097.65 3068.55 L 4097.65 3069.09 L 4097.29 3069.45 L 4096.75 3069.64 L 4096.02 3069.64 L 4095.47 3069.45 L 4095.11 3069.09 M 4099.04 3066.73 L 4099.04 3066.55 L 4099.22 3066.18 L 4099.4 3066 L 4099.76 3065.82 L 4100.49 3065.82 L 4100.85 3066 L 4101.04 3066.18 L 4101.22 3066.55 L 4101.22 3066.91 L 4101.04 3067.27 L 4100.67 3067.82 L 4098.85 3069.64 L 4101.4 3069.64" fill="none" stroke-width="0.8"/></g><g c_partid="part_pcbtext" c_etype="" c_origin="4091,3078" c_rotation="0" c_mirror="0" id="gge196" locked="0" layerid="3" c_shapetype="group"><path c_fontsize="4" c_fontfamily="" c_text="MS3" d="M 4091 3075.82 L 4091 3079.64 M 4091 3075.82 L 4092.45 3079.64 M 4093.91 3075.82 L 4092.45 3079.64 M 4093.91 3075.82 L 4093.91 3079.64 M 4097.65 3076.36 L 4097.29 3076 L 4096.75 3075.82 L 4096.02 3075.82 L 4095.47 3076 L 4095.11 3076.36 L 4095.11 3076.73 L 4095.29 3077.09 L 4095.47 3077.27 L 4095.84 3077.45 L 4096.93 3077.82 L 4097.29 3078 L 4097.47 3078.18 L 4097.65 3078.55 L 4097.65 3079.09 L 4097.29 3079.45 L 4096.75 3079.64 L 4096.02 3079.64 L 4095.47 3079.45 L 4095.11 3079.09 M 4099.22 3075.82 L 4101.22 3075.82 L 4100.13 3077.27 L 4100.67 3077.27 L 4101.04 3077.45 L 4101.22 3077.64 L 4101.4 3078.18 L 4101.4 3078.55 L 4101.22 3079.09 L 4100.85 3079.45 L 4100.31 3079.64 L 4099.76 3079.64 L 4099.22 3079.45 L 4099.04 3079.27 L 4098.85 3078.91" fill="none" stroke-width="0.8"/></g><g c_partid="part_pcbtext" c_etype="" c_origin="4091,3108" c_rotation="0" c_mirror="0" id="gge198" locked="0" layerid="3" c_shapetype="group"><path c_fontsize="4" c_fontfamily="" c_text="STEP" d="M 4093.55 3106.36 L 4093.18 3106 L 4092.64 3105.82 L 4091.91 3105.82 L 4091.36 3106 L 4091 3106.36 L 4091 3106.73 L 4091.18 3107.09 L 4091.36 3107.27 L 4091.73 3107.45 L 4092.82 3107.82 L 4093.18 3108 L 4093.36 3108.18 L 4093.55 3108.55 L 4093.55 3109.09 L 4093.18 3109.45 L 4092.64 3109.64 L 4091.91 3109.64 L 4091.36 3109.45 L 4091 3109.09 M 4096.02 3105.82 L 4096.02 3109.64 M 4094.75 3105.82 L 4097.29 3105.82 M 4098.49 3105.82 L 4098.49 3109.64 M 4098.49 3105.82 L 4100.85 3105.82 M 4098.49 3107.64 L 4099.95 3107.64 M 4098.49 3109.64 L 4100.85 3109.64 M 4102.05 3105.82 L 4102.05 3109.64 M 4102.05 3105.82 L 4103.69 3105.82 L 4104.24 3106 L 4104.42 3106.18 L 4104.6 3106.55 L 4104.6 3107.09 L 4104.42 3107.45 L 4104.24 3107.64 L 4103.69 3107.82 L 4102.05 3107.82" fill="none" stroke-width="0.8"/></g><g c_partid="part_pcbtext" c_etype="" c_origin="4091,3118" c_rotation="0" c_mirror="0" id="gge200" locked="0" layerid="3" c_shapetype="group"><path c_fontsize="4" c_fontfamily="" c_text="DIR" d="M 4091 3115.82 L 4091 3119.64 M 4091 3115.82 L 4092.27 3115.82 L 4092.82 3116 L 4093.18 3116.36 L 4093.36 3116.73 L 4093.55 3117.27 L 4093.55 3118.18 L 4093.36 3118.73 L 4093.18 3119.09 L 4092.82 3119.45 L 4092.27 3119.64 L 4091 3119.64 M 4094.75 3115.82 L 4094.75 3119.64 M 4095.95 3115.82 L 4095.95 3119.64 M 4095.95 3115.82 L 4097.58 3115.82 L 4098.13 3116 L 4098.31 3116.18 L 4098.49 3116.55 L 4098.49 3116.91 L 4098.31 3117.27 L 4098.13 3117.45 L 4097.58 3117.64 L 4095.95 3117.64 M 4097.22 3117.64 L 4098.49 3119.64" fill="none" stroke-width="0.8"/></g><g c_partid="part_pcbtext" c_etype="" c_origin="4122,3118" c_rotation="0" c_mirror="0" id="gge202" locked="0" layerid="3" c_shapetype="group"><path c_fontsize="4" c_fontfamily="" c_text="GND" d="M 4124.73 3116.73 L 4124.55 3116.36 L 4124.18 3116 L 4123.82 3115.82 L 4123.09 3115.82 L 4122.73 3116 L 4122.36 3116.36 L 4122.18 3116.73 L 4122 3117.27 L 4122 3118.18 L 4122.18 3118.73 L 4122.36 3119.09 L 4122.73 3119.45 L 4123.09 3119.64 L 4123.82 3119.64 L 4124.18 3119.45 L 4124.55 3119.09 L 4124.73 3118.73 L 4124.73 3118.18 M 4123.82 3118.18 L 4124.73 3118.18 M 4125.93 3115.82 L 4125.93 3119.64 M 4125.93 3115.82 L 4128.47 3119.64 M 4128.47 3115.82 L 4128.47 3119.64 M 4129.67 3115.82 L 4129.67 3119.64 M 4129.67 3115.82 L 4130.95 3115.82 L 4131.49 3116 L 4131.85 3116.36 L 4132.04 3116.73 L 4132.22 3117.27 L 4132.22 3118.18 L 4132.04 3118.73 L 4131.85 3119.09 L 4131.49 3119.45 L 4130.95 3119.64 L 4129.67 3119.64" fill="none" stroke-width="0.8"/></g><g c_partid="part_pcbtext" c_etype="" c_origin="4122,3108" c_rotation="0" c_mirror="0" id="gge204" locked="0" layerid="3" c_shapetype="group"><path c_fontsize="4" c_fontfamily="" c_text="VDD" d="M 4122 3105.82 L 4123.45 3109.64 M 4124.91 3105.82 L 4123.45 3109.64 M 4126.11 3105.82 L 4126.11 3109.64 M 4126.11 3105.82 L 4127.38 3105.82 L 4127.93 3106 L 4128.29 3106.36 L 4128.47 3106.73 L 4128.65 3107.27 L 4128.65 3108.18 L 4128.47 3108.73 L 4128.29 3109.09 L 4127.93 3109.45 L 4127.38 3109.64 L 4126.11 3109.64 M 4129.85 3105.82 L 4129.85 3109.64 M 4129.85 3105.82 L 4131.13 3105.82 L 4131.67 3106 L 4132.04 3106.36 L 4132.22 3106.73 L 4132.4 3107.27 L 4132.4 3108.18 L 4132.22 3108.73 L 4132.04 3109.09 L 4131.67 3109.45 L 4131.13 3109.64 L 4129.85 3109.64" fill="none" stroke-width="0.8"/></g><g c_partid="part_pcbtext" c_etype="" c_origin="4122,3098" c_rotation="0" c_mirror="0" id="gge206" locked="0" layerid="3" c_shapetype="group"><path c_fontsize="4" c_fontfamily="" c_text="1B" d="M 4122 3096.55 L 4122.36 3096.36 L 4122.91 3095.82 L 4122.91 3099.64 M 4124.11 3095.82 L 4124.11 3099.64 M 4124.11 3095.82 L 4125.75 3095.82 L 4126.29 3096 L 4126.47 3096.18 L 4126.65 3096.55 L 4126.65 3096.91 L 4126.47 3097.27 L 4126.29 3097.45 L 4125.75 3097.64 M 4124.11 3097.64 L 4125.75 3097.64 L 4126.29 3097.82 L 4126.47 3098 L 4126.65 3098.36 L 4126.65 3098.91 L 4126.47 3099.27 L 4126.29 3099.45 L 4125.75 3099.64 L 4124.11 3099.64" fill="none" stroke-width="0.8"/></g><g c_partid="part_pcbtext" c_etype="" c_origin="4122,3088" c_rotation="0" c_mirror="0" id="gge208" locked="0" layerid="3" c_shapetype="group"><path c_fontsize="4" c_fontfamily="" c_text="1A" d="M 4122 3086.55 L 4122.36 3086.36 L 4122.91 3085.82 L 4122.91 3089.64 M 4125.56 3085.82 L 4124.11 3089.64 M 4125.56 3085.82 L 4127.02 3089.64 M 4124.65 3088.36 L 4126.47 3088.36" fill="none" stroke-width="0.8"/></g><g c_partid="part_pcbtext" c_etype="" c_origin="4122,3078" c_rotation="0" c_mirror="0" id="gge210" locked="0" layerid="3" c_shapetype="group"><path c_fontsize="4" c_fontfamily="" c_text="2A" d="M 4122.18 3076.73 L 4122.18 3076.55 L 4122.36 3076.18 L 4122.55 3076 L 4122.91 3075.82 L 4123.64 3075.82 L 4124 3076 L 4124.18 3076.18 L 4124.36 3076.55 L 4124.36 3076.91 L 4124.18 3077.27 L 4123.82 3077.82 L 4122 3079.64 L 4124.55 3079.64 M 4127.2 3075.82 L 4125.75 3079.64 M 4127.2 3075.82 L 4128.65 3079.64 M 4126.29 3078.36 L 4128.11 3078.36" fill="none" stroke-width="0.8"/></g><g c_partid="part_pcbtext" c_etype="" c_origin="4122,3068" c_rotation="0" c_mirror="0" id="gge212" locked="0" layerid="3" c_shapetype="group"><path c_fontsize="4" c_fontfamily="" c_text="2B" d="M 4122.18 3066.73 L 4122.18 3066.55 L 4122.36 3066.18 L 4122.55 3066 L 4122.91 3065.82 L 4123.64 3065.82 L 4124 3066 L 4124.18 3066.18 L 4124.36 3066.55 L 4124.36 3066.91 L 4124.18 3067.27 L 4123.82 3067.82 L 4122 3069.64 L 4124.55 3069.64 M 4125.75 3065.82 L 4125.75 3069.64 M 4125.75 3065.82 L 4127.38 3065.82 L 4127.93 3066 L 4128.11 3066.18 L 4128.29 3066.55 L 4128.29 3066.91 L 4128.11 3067.27 L 4127.93 3067.45 L 4127.38 3067.64 M 4125.75 3067.64 L 4127.38 3067.64 L 4127.93 3067.82 L 4128.11 3068 L 4128.29 3068.36 L 4128.29 3068.91 L 4128.11 3069.27 L 4127.93 3069.45 L 4127.38 3069.64 L 4125.75 3069.64" fill="none" stroke-width="0.8"/></g><g c_partid="part_pcbtext" c_etype="" c_origin="4122,3058" c_rotation="0" c_mirror="0" id="gge214" locked="0" layerid="3" c_shapetype="group"><path c_fontsize="4" c_fontfamily="" c_text="GND" d="M 4124.73 3056.73 L 4124.55 3056.36 L 4124.18 3056 L 4123.82 3055.82 L 4123.09 3055.82 L 4122.73 3056 L 4122.36 3056.36 L 4122.18 3056.73 L 4122 3057.27 L 4122 3058.18 L 4122.18 3058.73 L 4122.36 3059.09 L 4122.73 3059.45 L 4123.09 3059.64 L 4123.82 3059.64 L 4124.18 3059.45 L 4124.55 3059.09 L 4124.73 3058.73 L 4124.73 3058.18 M 4123.82 3058.18 L 4124.73 3058.18 M 4125.93 3055.82 L 4125.93 3059.64 M 4125.93 3055.82 L 4128.47 3059.64 M 4128.47 3055.82 L 4128.47 3059.64 M 4129.67 3055.82 L 4129.67 3059.64 M 4129.67 3055.82 L 4130.95 3055.82 L 4131.49 3056 L 4131.85 3056.36 L 4132.04 3056.73 L 4132.22 3057.27 L 4132.22 3058.18 L 4132.04 3058.73 L 4131.85 3059.09 L 4131.49 3059.45 L 4130.95 3059.64 L 4129.67 3059.64" fill="none" stroke-width="0.8"/></g><g c_partid="part_pcbtext" c_etype="" c_origin="4118,3048" c_rotation="0" c_mirror="0" id="gge216" locked="0" layerid="3" c_shapetype="group"><path c_fontsize="4" c_fontfamily="" c_text="VMOT" d="M 4118 3045.82 L 4119.45 3049.64 M 4120.91 3045.82 L 4119.45 3049.64 M 4122.11 3045.82 L 4122.11 3049.64 M 4122.11 3045.82 L 4123.56 3049.64 M 4125.02 3045.82 L 4123.56 3049.64 M 4125.02 3045.82 L 4125.02 3049.64 M 4127.31 3045.82 L 4126.95 3046 L 4126.58 3046.36 L 4126.4 3046.73 L 4126.22 3047.27 L 4126.22 3048.18 L 4126.4 3048.73 L 4126.58 3049.09 L 4126.95 3049.45 L 4127.31 3049.64 L 4128.04 3049.64 L 4128.4 3049.45 L 4128.76 3049.09 L 4128.95 3048.73 L 4129.13 3048.18 L 4129.13 3047.27 L 4128.95 3046.73 L 4128.76 3046.36 L 4128.4 3046 L 4128.04 3045.82 L 4127.31 3045.82 M 4131.6 3045.82 L 4131.6 3049.64 M 4130.33 3045.82 L 4132.87 3045.82" fill="none" stroke-width="0.8"/></g><g c_partid="part_pcbtext" c_etype="" c_origin="4091,3048" c_rotation="0" c_mirror="0" id="gge218" locked="0" layerid="3" c_shapetype="group"><path c_fontsize="4" c_fontfamily="" c_text="EN" d="M 4091 3045.82 L 4091 3049.64 M 4091 3045.82 L 4093.36 3045.82 M 4091 3047.64 L 4092.45 3047.64 M 4091 3049.64 L 4093.36 3049.64 M 4094.56 3045.82 L 4094.56 3049.64 M 4094.56 3045.82 L 4097.11 3049.64 M 4097.11 3045.82 L 4097.11 3049.64" fill="none" stroke-width="0.8"/></g><g c_partid="part_pcbtext" c_etype="" c_origin="4091,3088" c_rotation="0" c_mirror="0" id="gge220" locked="0" layerid="3" c_shapetype="group"><path c_fontsize="4" c_fontfamily="" c_text="RST" d="M 4091 3085.82 L 4091 3089.64 M 4091 3085.82 L 4092.64 3085.82 L 4093.18 3086 L 4093.36 3086.18 L 4093.55 3086.55 L 4093.55 3086.91 L 4093.36 3087.27 L 4093.18 3087.45 L 4092.64 3087.64 L 4091 3087.64 M 4092.27 3087.64 L 4093.55 3089.64 M 4097.29 3086.36 L 4096.93 3086 L 4096.38 3085.82 L 4095.65 3085.82 L 4095.11 3086 L 4094.75 3086.36 L 4094.75 3086.73 L 4094.93 3087.09 L 4095.11 3087.27 L 4095.47 3087.45 L 4096.56 3087.82 L 4096.93 3088 L 4097.11 3088.18 L 4097.29 3088.55 L 4097.29 3089.09 L 4096.93 3089.45 L 4096.38 3089.64 L 4095.65 3089.64 L 4095.11 3089.45 L 4094.75 3089.09 M 4099.76 3085.82 L 4099.76 3089.64 M 4098.49 3085.82 L 4101.04 3085.82" fill="none" stroke-width="0.8"/></g><g c_partid="part_pcbtext" c_etype="" c_origin="4091,3098" c_rotation="0" c_mirror="0" id="gge222" locked="0" layerid="3" c_shapetype="group"><path c_fontsize="4" c_fontfamily="" c_text="SLP" d="M 4093.55 3096.36 L 4093.18 3096 L 4092.64 3095.82 L 4091.91 3095.82 L 4091.36 3096 L 4091 3096.36 L 4091 3096.73 L 4091.18 3097.09 L 4091.36 3097.27 L 4091.73 3097.45 L 4092.82 3097.82 L 4093.18 3098 L 4093.36 3098.18 L 4093.55 3098.55 L 4093.55 3099.09 L 4093.18 3099.45 L 4092.64 3099.64 L 4091.91 3099.64 L 4091.36 3099.45 L 4091 3099.09 M 4094.75 3095.82 L 4094.75 3099.64 M 4094.75 3099.64 L 4096.93 3099.64 M 4098.13 3095.82 L 4098.13 3099.64 M 4098.13 3095.82 L 4099.76 3095.82 L 4100.31 3096 L 4100.49 3096.18 L 4100.67 3096.55 L 4100.67 3097.09 L 4100.49 3097.45 L 4100.31 3097.64 L 4099.76 3097.82 L 4098.13 3097.82" fill="none" stroke-width="0.8"/></g><g c_partid="part_pcbtext" c_etype="" c_origin="4044,3139.711" c_rotation="0" c_mirror="0" id="gge307" locked="0" layerid="3" c_shapetype="group" display="none"><path c_fontsize="4.5" c_fontfamily="" c_text="U3" d="M 4044 3137.2518 L 4044 3140.3218 L 4044.2 3140.9418 L 4044.61 3141.3518 L 4045.23 3141.5518 L 4045.64 3141.5518 L 4046.25 3141.3518 L 4046.66 3140.9418 L 4046.86 3140.3218 L 4046.86 3137.2518 M 4048.62 3137.2518 L 4050.87 3137.2518 L 4049.65 3138.8918 L 4050.26 3138.8918 L 4050.67 3139.1018 L 4050.87 3139.3018 L 4051.08 3139.9118 L 4051.08 3140.3218 L 4050.87 3140.9418 L 4050.46 3141.3518 L 4049.85 3141.5518 L 4049.24 3141.5518 L 4048.62 3141.3518 L 4048.42 3141.1418 L 4048.21 3140.7318" fill="none" stroke-width="0.6" c_note="note_pre"/></g><g c_partid="part_pcbtext" c_etype="" c_origin="4044,3145.211" c_rotation="180" c_mirror="0" id="gge309" locked="0" layerid="3" c_shapetype="group" display="none"><path c_fontsize="4.5" c_fontfamily="" c_text="MP1584EN" d="M 4044 3147.67 L 4044 3143.37 M 4044 3147.67 L 4042.36 3143.37 M 4040.73 3147.67 L 4042.36 3143.37 M 4040.73 3147.67 L 4040.73 3143.37 M 4039.38 3147.67 L 4039.38 3143.37 M 4039.38 3147.67 L 4037.54 3147.67 L 4036.92 3147.46 L 4036.72 3147.26 L 4036.51 3146.85 L 4036.51 3146.23 L 4036.72 3145.82 L 4036.92 3145.62 L 4037.54 3145.42 L 4039.38 3145.42 M 4035.16 3146.85 L 4034.75 3147.05 L 4034.14 3147.67 L 4034.14 3143.37 M 4030.34 3147.67 L 4032.38 3147.67 L 4032.59 3145.82 L 4032.38 3146.03 L 4031.77 3146.23 L 4031.15 3146.23 L 4030.54 3146.03 L 4030.13 3145.62 L 4029.93 3145.01 L 4029.93 3144.6 L 4030.13 3143.98 L 4030.54 3143.57 L 4031.15 3143.37 L 4031.77 3143.37 L 4032.38 3143.57 L 4032.59 3143.78 L 4032.79 3144.19 M 4027.55 3147.67 L 4028.17 3147.46 L 4028.37 3147.05 L 4028.37 3146.64 L 4028.17 3146.23 L 4027.76 3146.03 L 4026.94 3145.82 L 4026.33 3145.62 L 4025.92 3145.21 L 4025.71 3144.8 L 4025.71 3144.19 L 4025.92 3143.78 L 4026.12 3143.57 L 4026.74 3143.37 L 4027.55 3143.37 L 4028.17 3143.57 L 4028.37 3143.78 L 4028.58 3144.19 L 4028.58 3144.8 L 4028.37 3145.21 L 4027.96 3145.62 L 4027.35 3145.82 L 4026.53 3146.03 L 4026.12 3146.23 L 4025.92 3146.64 L 4025.92 3147.05 L 4026.12 3147.46 L 4026.74 3147.67 L 4027.55 3147.67 M 4022.32 3147.67 L 4024.36 3144.8 L 4021.3 3144.8 M 4022.32 3147.67 L 4022.32 3143.37 M 4019.95 3147.67 L 4019.95 3143.37 M 4019.95 3147.67 L 4017.29 3147.67 M 4019.95 3145.62 L 4018.31 3145.62 M 4019.95 3143.37 L 4017.29 3143.37 M 4015.94 3147.67 L 4015.94 3143.37 M 4015.94 3147.67 L 4013.07 3143.37 M 4013.07 3147.67 L 4013.07 3143.37" fill="none" stroke-width="0.6" c_note="note_name"/></g><g c_partid="part_pcbtext" c_etype="" c_origin="4060.642,3111.617" c_rotation="0" c_mirror="0" id="gge350" locked="0" layerid="3" c_shapetype="group"><path c_fontsize="3.937" c_fontfamily="" c_text="OUT-" d="M 4061.7147 3109.4746 L 4061.3647 3109.6546 L 4061.0047 3110.0146 L 4060.8247 3110.3746 L 4060.6447 3110.9046 L 4060.6447 3111.8046 L 4060.8247 3112.3446 L 4061.0047 3112.6946 L 4061.3647 3113.0546 L 4061.7147 3113.2346 L 4062.4347 3113.2346 L 4062.7947 3113.0546 L 4063.1547 3112.6946 L 4063.3247 3112.3446 L 4063.5047 3111.8046 L 4063.5047 3110.9046 L 4063.3247 3110.3746 L 4063.1547 3110.0146 L 4062.7947 3109.6546 L 4062.4347 3109.4746 L 4061.7147 3109.4746 M 4064.6847 3109.4746 L 4064.6847 3112.1646 L 4064.8647 3112.6946 L 4065.2247 3113.0546 L 4065.7647 3113.2346 L 4066.1247 3113.2346 L 4066.6547 3113.0546 L 4067.0147 3112.6946 L 4067.1947 3112.1646 L 4067.1947 3109.4746 M 4069.6247 3109.4746 L 4069.6247 3113.2346 M 4068.3747 3109.4746 L 4070.8847 3109.4746 M 4072.0647 3111.6246 L 4075.2847 3111.6246" fill="none" stroke-width="0.8"/></g><g c_partid="part_pcbtext" c_etype="" c_origin="4015.647,3110.617" c_rotation="0" c_mirror="0" id="gge352" locked="0" layerid="3" c_shapetype="group"><path c_fontsize="3.937" c_fontfamily="" c_text="OUT+" d="M 4016.7225 3108.4746 L 4016.3725 3108.6546 L 4016.0125 3109.0146 L 4015.8325 3109.3746 L 4015.6525 3109.9046 L 4015.6525 3110.8046 L 4015.8325 3111.3446 L 4016.0125 3111.6946 L 4016.3725 3112.0546 L 4016.7225 3112.2346 L 4017.4425 3112.2346 L 4017.8025 3112.0546 L 4018.1625 3111.6946 L 4018.3325 3111.3446 L 4018.5125 3110.8046 L 4018.5125 3109.9046 L 4018.3325 3109.3746 L 4018.1625 3109.0146 L 4017.8025 3108.6546 L 4017.4425 3108.4746 L 4016.7225 3108.4746 M 4019.6925 3108.4746 L 4019.6925 3111.1646 L 4019.8725 3111.6946 L 4020.2325 3112.0546 L 4020.7725 3112.2346 L 4021.1325 3112.2346 L 4021.6625 3112.0546 L 4022.0225 3111.6946 L 4022.2025 3111.1646 L 4022.2025 3108.4746 M 4024.6325 3108.4746 L 4024.6325 3112.2346 M 4023.3825 3108.4746 L 4025.8925 3108.4746 M 4028.6825 3109.0146 L 4028.6825 3112.2346 M 4027.0725 3110.6246 L 4030.2925 3110.6246" fill="none" stroke-width="0.8"/></g><g c_partid="part_pcbtext" c_etype="" c_origin="4062.091,3056.616" c_rotation="0" c_mirror="0" id="gge354" locked="0" layerid="3" c_shapetype="group"><path c_fontsize="3.937" c_fontfamily="" c_text="IN-" d="M 4062.0939 3054.4729 L 4062.0939 3058.2329 M 4063.2739 3054.4729 L 4063.2739 3058.2329 M 4063.2739 3054.4729 L 4065.7839 3058.2329 M 4065.7839 3054.4729 L 4065.7839 3058.2329 M 4066.9639 3056.6229 L 4070.1839 3056.6229" fill="none" stroke-width="0.8"/></g><g c_partid="part_pcbtext" c_etype="" c_origin="4018.097,3056.616" c_rotation="0" c_mirror="0" id="gge356" locked="0" layerid="3" c_shapetype="group"><path c_fontsize="3.937" c_fontfamily="" c_text="IN+" d="M 4018.1058 3054.4729 L 4018.1058 3058.2329 M 4019.2858 3054.4729 L 4019.2858 3058.2329 M 4019.2858 3054.4729 L 4021.7958 3058.2329 M 4021.7958 3054.4729 L 4021.7958 3058.2329 M 4024.5858 3055.0129 L 4024.5858 3058.2329 M 4022.9758 3056.6229 L 4026.1958 3056.6229" fill="none" stroke-width="0.8"/></g><g c_partid="part_pcbtext" c_etype="" c_origin="4032.064,3085.609" c_rotation="0" c_mirror="0" id="gge358" locked="0" layerid="3" c_shapetype="group"><path c_fontsize="3.937" c_fontfamily="" c_text="MP1584EN" d="M 4032.0665 3083.4585 L 4032.0665 3087.2185 M 4032.0665 3083.4585 L 4033.4965 3087.2185 M 4034.9265 3083.4585 L 4033.4965 3087.2185 M 4034.9265 3083.4585 L 4034.9265 3087.2185 M 4036.1065 3083.4585 L 4036.1065 3087.2185 M 4036.1065 3083.4585 L 4037.7165 3083.4585 L 4038.2565 3083.6385 L 4038.4365 3083.8185 L 4038.6165 3084.1785 L 4038.6165 3084.7085 L 4038.4365 3085.0685 L 4038.2565 3085.2485 L 4037.7165 3085.4285 L 4036.1065 3085.4285 M 4039.7965 3084.1785 L 4040.1565 3083.9985 L 4040.6865 3083.4585 L 4040.6865 3087.2185 M 4044.0165 3083.4585 L 4042.2265 3083.4585 L 4042.0465 3085.0685 L 4042.2265 3084.8885 L 4042.7665 3084.7085 L 4043.3065 3084.7085 L 4043.8365 3084.8885 L 4044.1965 3085.2485 L 4044.3765 3085.7885 L 4044.3765 3086.1385 L 4044.1965 3086.6785 L 4043.8365 3087.0385 L 4043.3065 3087.2185 L 4042.7665 3087.2185 L 4042.2265 3087.0385 L 4042.0465 3086.8585 L 4041.8665 3086.4985 M 4046.4565 3083.4585 L 4045.9165 3083.6385 L 4045.7365 3083.9985 L 4045.7365 3084.3485 L 4045.9165 3084.7085 L 4046.2765 3084.8885 L 4046.9865 3085.0685 L 4047.5265 3085.2485 L 4047.8865 3085.6085 L 4048.0665 3085.9685 L 4048.0665 3086.4985 L 4047.8865 3086.8585 L 4047.7065 3087.0385 L 4047.1665 3087.2185 L 4046.4565 3087.2185 L 4045.9165 3087.0385 L 4045.7365 3086.8585 L 4045.5565 3086.4985 L 4045.5565 3085.9685 L 4045.7365 3085.6085 L 4046.0965 3085.2485 L 4046.6265 3085.0685 L 4047.3465 3084.8885 L 4047.7065 3084.7085 L 4047.8865 3084.3485 L 4047.8865 3083.9985 L 4047.7065 3083.6385 L 4047.1665 3083.4585 L 4046.4565 3083.4585 M 4051.0365 3083.4585 L 4049.2465 3085.9685 L 4051.9265 3085.9685 M 4051.0365 3083.4585 L 4051.0365 3087.2185 M 4053.1065 3083.4585 L 4053.1065 3087.2185 M 4053.1065 3083.4585 L 4055.4365 3083.4585 M 4053.1065 3085.2485 L 4054.5365 3085.2485 M 4053.1065 3087.2185 L 4055.4365 3087.2185 M 4056.6165 3083.4585 L 4056.6165 3087.2185 M 4056.6165 3083.4585 L 4059.1265 3087.2185 M 4059.1265 3083.4585 L 4059.1265 3087.2185" fill="none" stroke-width="0.7874"/></g><path d="M 4030 3190 A 4.99999 4.99999 0 0 1 4030 3200" locked="0" fill="none" stroke-width="1" c_helper_type="arc2" net="" layerid="3" id="gge132"/><circle cx="4163" cy="3070.1" r="5.9" stroke-width="1" fill="none" layerid="3" id="gge53" locked="0"/><circle cx="4163" cy="3083.7" r="5.9" stroke-width="1" fill="none" layerid="3" id="gge54" locked="0"/><circle cx="4163" cy="3097.1" r="5.9" stroke-width="1" fill="none" layerid="3" id="gge63" locked="0"/><circle cx="4163" cy="3110.7" r="5.9" stroke-width="1" fill="none" layerid="3" id="gge64" locked="0"/><circle cx="4052.8" cy="3014" r="5.9" stroke-width="1" fill="none" layerid="3" id="gge147" locked="0"/><circle cx="4039.2" cy="3014" r="5.9" stroke-width="1" fill="none" layerid="3" id="gge148" locked="0"/><circle cx="4018" cy="3195.047" r="5.906" stroke-width="1" fill="none" layerid="3" id="gge157" locked="0"/><circle cx="4150" cy="3051.047" r="5.906" stroke-width="1" fill="none" layerid="3" id="gge175" locked="0"/><path d="M 4012.095 3195.244 A 5.9193 5.9193 0 0 0 4023.9055 3195.2441 Z " stroke-width="0" net="" type="solid" layerid="3" id="gge158" locked="0" c_teardrop="" c_targetpad="" c_targetwire=""/><path d="M 4144.095 3051.244 A 5.9193 5.9193 0 0 0 4155.9055 3051.2441 Z " stroke-width="0" net="" type="solid" layerid="3" id="gge176" locked="0" c_teardrop="" c_targetpad="" c_targetwire=""/><polyline points="4000 3000 4177.165 3000 4177.165 3275.59 4000 3275.59 4000 3000" stroke-width="1" stroke-linecap="round" fill="none" layerid="10" net="" id="gge365" locked="0"/></svg>