<svg xmlns="http://www.w3.org/2000/svg" width="1170.5" height="827" viewBox="-10 -10.5 1170.5 827"><style>path,polyline{stroke-linejoin:round;}circle,ellipse,path,polyline,rect{shape-rendering:crispEdges}</style><path fill="#FFF" d="M-10-10.5h1170.5v827H-10z"/><g xmlns="http://www.w3.org/2000/svg" id="g1"><g id="frame_lib_1"><path d="M206 10V0m0 796v10M402 10V0m0 796v10M598 10V0m0 796v10M794 10V0m0 796v10M990 10V0m0 796v10M10 206H0m1139 0h10M10 402H0m1139 0h10M10 598H0m1139 0h10M10 794H0m1139 0h10" id="frame_tick_1" stroke="#800" stroke-width="1" fill="none"/><text x="1.5" y="108" fill="#800" font-family="Verdana" font-size="7pt" id="frame_tick_2">A</text><text x="1140.5" y="108" fill="#800" font-family="Verdana" font-size="7pt" id="frame_tick_3">A</text><text x="1.5" y="304" fill="#800" font-family="Verdana" font-size="7pt" id="frame_tick_4">B</text><text x="1140.5" y="304" fill="#800" font-family="Verdana" font-size="7pt" id="frame_tick_5">B</text><text x="1.5" y="500" fill="#800" font-family="Verdana" font-size="7pt" id="frame_tick_6">C</text><text x="1140.5" y="500" fill="#800" font-family="Verdana" font-size="7pt" id="frame_tick_7">C</text><text x="1.5" y="696" fill="#800" font-family="Verdana" font-size="7pt" id="frame_tick_8">D</text><text x="1140.5" y="696" fill="#800" font-family="Verdana" font-size="7pt" id="frame_tick_9">D</text><text x="108" y="8.5" fill="#800" font-family="Verdana" font-size="7pt" id="frame_tick_10">1</text><text x="108" y="804.5" fill="#800" font-family="Verdana" font-size="7pt" id="frame_tick_11">1</text><text x="304" y="8.5" fill="#800" font-family="Verdana" font-size="7pt" id="frame_tick_12">2</text><text x="304" y="804.5" fill="#800" font-family="Verdana" font-size="7pt" id="frame_tick_13">2</text><text x="500" y="8.5" fill="#800" font-family="Verdana" font-size="7pt" id="frame_tick_14">3</text><text x="500" y="804.5" fill="#800" font-family="Verdana" font-size="7pt" id="frame_tick_15">3</text><text x="696" y="8.5" fill="#800" font-family="Verdana" font-size="7pt" id="frame_tick_16">4</text><text x="696" y="804.5" fill="#800" font-family="Verdana" font-size="7pt" id="frame_tick_17">4</text><text x="892" y="8.5" fill="#800" font-family="Verdana" font-size="7pt" id="frame_tick_18">5</text><text x="892" y="804.5" fill="#800" font-family="Verdana" font-size="7pt" id="frame_tick_19">5</text><path id="frame_innerbox_1" stroke="#800" stroke-width="1" fill="none" d="M10 10h1129v786H10z"/><path id="frame_outbox_1" stroke="#800" stroke-width="1" fill="none" d="M0 0h1149v806H0z"/><path id="frame_hitarea_1" stroke="#800" stroke-width="1" fill="none" d="M739 716h400v80H739z"/><path stroke="#800" id="gge150" stroke-width="1" fill="none" stroke-linecap="round" d="M739 756h400"/><path stroke="#800" id="gge151" stroke-width="1" fill="none" stroke-linecap="round" d="M739 776h400"/><path stroke="#800" id="gge152" stroke-width="1" fill="none" stroke-linecap="round" d="M1059 716v40"/><path stroke="#800" id="gge153" stroke-width="1" fill="none" stroke-linecap="round" d="M1019 756v20"/><path stroke="#800" id="gge154" stroke-width="1" fill="none" stroke-linecap="round" d="M934 776v20"/><text x="744" y="728" fill="#800" font-family="Verdana" font-size="8pt" id="gge155">TITLE:</text><text x="749" y="746" fill="#800" font-family="Verdana" font-size="10pt" id="frame_title_1">Stepper Driver</text><text x="1065" y="742" fill="#800" font-family="Verdana" font-size="8pt" id="gge158">REV:</text><text x="1096" y="743" fill="#800" font-family="Verdana" font-size="12" id="frame_version_1">1.2</text><text x="744" y="771" fill="#800" font-family="Verdana" font-size="8pt" id="gge161">Date:</text><text x="794" y="771" fill="#800" font-family="Verdana" font-size="12" id="frame_date_1">2019-27-05</text><text x="1024" y="771" fill="#800" font-family="Verdana" font-size="8pt" id="gge164">Sheet:</text><text x="1069" y="771" fill="#800" font-family="Verdana" font-size="12" id="frame_sheet_1">1/1</text><text x="744" y="791" fill="#800" font-family="Verdana" font-size="8pt" id="frame_product_1">EasyEDA V5.7.26</text><text x="944" y="791" fill="#800" font-family="Verdana" font-size="8pt" id="gge168">Drawn By:</text><text x="1009" y="791" fill="#800" font-family="Verdana" font-size="12" id="frame_drawn_1">Ben Vosper</text></g><g id="gge0ac0bd892f9b1ec0"><text x="635.71" y="359.57" fill="navy" font-family="Arial" font-size="7pt" id="gge2080">DIR</text><path stroke="#800" id="gge2084" stroke-width="1" fill="none" stroke-linecap="round" d="M640 345l-10-10"/><path stroke="#800" id="gge2085" stroke-width="1" fill="none" stroke-linecap="round" d="M630 335h-2"/><path stroke="#800" id="gge2086" stroke-width="1" fill="none" stroke-linecap="round" d="M630 355h-2"/><circle cx="630" cy="355" id="gge2087" stroke="#800" stroke-width="1" fill="none" r="1"/><circle cx="630" cy="335" id="gge2088" stroke="#800" stroke-width="1" fill="none" r="1"/><circle cx="640" cy="345" id="gge2089" stroke="#800" stroke-width="1" fill="none" r="1"/><g id="gge2090"><text x="644" y="344" font-family="Verdana" font-size="7pt" fill="#00F">2</text><circle class="pindot" cx="650" cy="345" r="2" fill="none"/><path d="M650 345h-10" fill="none" stroke="#800"/></g><g id="gge2097"><text x="626" y="334" font-family="Verdana" font-size="7pt" fill="#00F" text-anchor="end">3</text><circle class="pindot" cx="620" cy="335" r="2" fill="none"/><path d="M620 335h10" fill="none" stroke="#800"/></g><g id="gge2104"><text x="626" y="354" font-family="Verdana" font-size="7pt" fill="#00F" text-anchor="end">1</text><circle class="pindot" cx="620" cy="355" r="2" fill="none"/><path d="M620 355h10" fill="none" stroke="#800"/></g></g><g id="gge06a3891e5cc83af6"><text x="235.71" y="394.57" fill="navy" font-family="Arial" font-size="7pt" id="gge2386">B10K</text><path stroke="#800" id="gge2390" stroke-width="1" fill="none" stroke-linecap="round" d="M260 383v-3"/><path stroke="#800" id="gge2391" stroke-width="1" fill="none" stroke-linecap="round" d="M230 377v3"/><path stroke="#800" id="gge2392" stroke-width="1" fill="none" stroke-linecap="round" d="M230 383h30"/><path stroke="#800" id="gge2393" stroke-width="1" fill="none" stroke-linecap="round" d="M260 377h-30"/><path stroke="#800" id="gge2394" stroke-width="1" fill="none" stroke-linecap="round" d="M245 370v4"/><path stroke="#800" id="gge2395" stroke-width="1" fill="none" stroke-linecap="round" d="M245 377l2-3"/><path stroke="#800" id="gge2396" stroke-width="1" fill="none" stroke-linecap="round" d="M247 374h-4"/><path stroke="#800" id="gge2397" stroke-width="1" fill="none" stroke-linecap="round" d="M245 377l-2-3"/><path stroke="#800" id="gge2398" stroke-width="1" fill="none" stroke-linecap="round" d="M230 380h-5"/><path stroke="#800" id="gge2399" stroke-width="1" fill="none" stroke-linecap="round" d="M230 380v3"/><path stroke="#800" id="gge2400" stroke-width="1" fill="none" stroke-linecap="round" d="M265 380h-5"/><path stroke="#800" id="gge2401" stroke-width="1" fill="none" stroke-linecap="round" d="M260 380v-3"/><path stroke="#800" id="gge2402" stroke-width="1" fill="none" stroke-linecap="round" d="M245 374v3"/><g id="gge2403"><text x="271" y="379" font-family="Verdana" font-size="7pt" fill="#00F">3</text><circle class="pindot" cx="275" cy="380" r="2" fill="none"/><path d="M275 380h-10" fill="none" stroke="#800"/></g><g id="gge2410"><text x="219" y="379" font-family="Verdana" font-size="7pt" fill="#00F" text-anchor="end">1</text><circle class="pindot" cx="215" cy="380" r="2" fill="none"/><path d="M215 380h10" fill="none" stroke="#800"/></g><g id="gge2417"><text x="244" y="364" font-family="Verdana" font-size="7pt" fill="#00F" transform="rotate(270 244 364)">2</text><circle class="pindot" cx="245" cy="360" r="2" fill="none"/><path d="M245 360v10" fill="none" stroke="#800"/></g></g><g id="gge1bdc0ab44f99f92d"><text x="279.03" y="182" fill="navy" font-family="Arial" font-size="7pt" id="gge3000">NE555P</text><text x="279.03" y="173" fill="navy" font-family="Arial" font-size="7pt" id="gge3002">U1</text><rect id="gge3004" x="245" y="185" rx="2" ry="2" width="80" height="50" stroke="#800" stroke-width="1" fill="none"/><circle cx="250" cy="190" id="gge3005" stroke="#800" stroke-width="1" fill="#FFF" r="1.5"/><g id="gge3006"><text x="248.7" y="199" font-family="Verdana" font-size="7pt" fill="#00F">GND</text><text x="244.5" y="194" font-family="Verdana" font-size="7pt" fill="#00F" text-anchor="end">1</text><circle class="pindot" cx="235" cy="195" r="2" fill="none"/><path d="M235 195h10" fill="none" stroke="#800"/></g><g id="gge3013"><text x="248.7" y="209" font-family="Verdana" font-size="7pt" fill="#00F">TRIG</text><text x="244.5" y="204" font-family="Verdana" font-size="7pt" fill="#00F" text-anchor="end">2</text><circle class="pindot" cx="235" cy="205" r="2" fill="none"/><path d="M235 205h10" fill="none" stroke="#800"/></g><g id="gge3020"><text x="248.7" y="219" font-family="Verdana" font-size="7pt" fill="#00F">OUT</text><text x="244.5" y="214" font-family="Verdana" font-size="7pt" fill="#00F" text-anchor="end">3</text><circle class="pindot" cx="235" cy="215" r="2" fill="none"/><path d="M235 215h10" fill="none" stroke="#800"/></g><g id="gge3027"><text x="248.7" y="229" font-family="Verdana" font-size="7pt" fill="#00F">RESET</text><text x="244.5" y="224" font-family="Verdana" font-size="7pt" fill="#00F" text-anchor="end">4</text><circle class="pindot" cx="235" cy="225" r="2" fill="none"/><path d="M235 225h10" fill="none" stroke="#800"/></g><g id="gge3034"><text x="321.3" y="229" font-family="Verdana" font-size="7pt" fill="#00F" text-anchor="end">CONT</text><text x="325.5" y="224" font-family="Verdana" font-size="7pt" fill="#00F">5</text><circle class="pindot" cx="335" cy="225" r="2" fill="none"/><path d="M335 225h-10" fill="none" stroke="#800"/></g><g id="gge3041"><text x="321.3" y="219" font-family="Verdana" font-size="7pt" fill="#00F" text-anchor="end">THRES</text><text x="325.5" y="214" font-family="Verdana" font-size="7pt" fill="#00F">6</text><circle class="pindot" cx="335" cy="215" r="2" fill="none"/><path d="M335 215h-10" fill="none" stroke="#800"/></g><g id="gge3048"><text x="321.3" y="209" font-family="Verdana" font-size="7pt" fill="#00F" text-anchor="end">DISCH</text><text x="325.5" y="204" font-family="Verdana" font-size="7pt" fill="#00F">7</text><circle class="pindot" cx="335" cy="205" r="2" fill="none"/><path d="M335 205h-10" fill="none" stroke="#800"/></g><g id="gge3055"><text x="321.3" y="199" font-family="Verdana" font-size="7pt" fill="#00F" text-anchor="end">VCC</text><text x="325.5" y="194" font-family="Verdana" font-size="7pt" fill="#00F">8</text><circle class="pindot" cx="335" cy="195" r="2" fill="none"/><path d="M335 195h-10" fill="none" stroke="#800"/></g><text x="287.87" y="225.26" fill="#00F" font-family="Arial" font-size="6.5pt" transform="rotate(270 287.87 225.26)" id="gge3062">NE555P</text></g><g id="gge353b166cc2dee846"><text x="116" y="217.36" fill="navy" font-family="Arial" font-size="7pt" id="gge3066">100k</text><path id="gge3070" stroke="#800" stroke-width="1" fill="none" d="M106 195h8v20h-8z"/><g id="gge3071"><circle class="pindot" cx="110" cy="185" r="2" fill="none"/><path d="M110 195v-10" fill="none" stroke="#800"/></g><g id="gge3078"><circle class="pindot" cx="110" cy="225" r="2" fill="none"/><path d="M110 215v10" fill="none" stroke="#800"/></g></g><g id="gge6f63fc6711cfa315"><text x="251" y="337.36" fill="navy" font-family="Arial" font-size="7pt" id="gge3088">1k</text><path id="gge3092" stroke="#800" stroke-width="1" fill="none" d="M241 315h8v20h-8z"/><g id="gge3093"><circle class="pindot" cx="245" cy="305" r="2" fill="none"/><path d="M245 315v-10" fill="none" stroke="#800"/></g><g id="gge3100"><circle class="pindot" cx="245" cy="345" r="2" fill="none"/><path d="M245 335v10" fill="none" stroke="#800"/></g></g><g id="gge16ca49f37df57620"><text x="625.71" y="174.57" fill="navy" font-family="Arial" font-size="7pt" id="gge3132">ENA</text><path stroke="#800" id="gge3136" stroke-width="1" fill="none" stroke-linecap="round" d="M620 165l10-10"/><path stroke="#800" id="gge3137" stroke-width="1" fill="none" stroke-linecap="round" d="M630 155v-2"/><path stroke="#800" id="gge3138" stroke-width="1" fill="none" stroke-linecap="round" d="M610 155v-2"/><circle cx="610" cy="155" id="gge3139" stroke="#800" stroke-width="1" fill="none" r="1"/><circle cx="630" cy="155" id="gge3140" stroke="#800" stroke-width="1" fill="none" r="1"/><circle cx="620" cy="165" id="gge3141" stroke="#800" stroke-width="1" fill="none" r="1"/><g id="gge3142"><text x="619" y="169" font-family="Verdana" font-size="7pt" fill="#00F" text-anchor="end" transform="rotate(270 619 169)">2</text><circle class="pindot" cx="620" cy="175" r="2" fill="none"/><path d="M620 175v-10" fill="none" stroke="#800"/></g><g id="gge3149"><text x="629" y="151" font-family="Verdana" font-size="7pt" fill="#00F" transform="rotate(270 629 151)">3</text><circle class="pindot" cx="630" cy="145" r="2" fill="none"/><path d="M630 145v10" fill="none" stroke="#800"/></g><g id="gge3156"><text x="609" y="151" font-family="Verdana" font-size="7pt" fill="#00F" transform="rotate(270 609 151)">1</text><circle class="pindot" cx="610" cy="145" r="2" fill="none"/><path d="M610 145v10" fill="none" stroke="#800"/></g></g><g id="ggeb4693cfd16d534cd"><text x="273.21" y="124.8" fill="navy" font-family="Arial" font-size="7pt" id="gge3165">2.2u</text><text x="273.93" y="115.66" fill="navy" font-family="Arial" font-size="7pt" id="gge3167">C1</text><path stroke="#800" id="gge3169" stroke-width="1" fill="none" stroke-linecap="round" d="M290 135h-6"/><path stroke="#800" id="gge3170" stroke-width="1" fill="none" stroke-linecap="round" d="M270 135h7"/><path id="gge3171" stroke="#800" stroke-width="1" fill="#FFF" d="M277.2 127.8h1.8v14.7h-1.8z"/><path id="gge3172" stroke="#800" stroke-width="1" fill="none" d="M282.2 127.8h1.8v14.7h-1.8z"/><g id="gge3173"><circle class="pindot" cx="300" cy="135" r="2" fill="none"/><path d="M300 135h-10" fill="none" stroke="#800"/></g><g id="gge3180"><circle class="pindot" cx="260" cy="135" r="2" fill="none"/><path d="M260 135h10" fill="none" stroke="#800"/></g><path id="gge3187" stroke="#800" stroke-width="1" fill="#FFF" d="M287.9 128h.1v4h-.1z"/><path id="gge3188" stroke="#800" stroke-width="1" fill="#FFF" d="M286 130h4v.1h-4z"/></g><g id="ggea2c5d49bc5dde298"><text x="119.5" y="277.36" fill="navy" font-family="Arial" font-size="7pt" id="gge3218">100n</text><path stroke="#800" id="gge3222" stroke-width="1" fill="none" stroke-linecap="round" d="M110 255v6"/><path stroke="#800" id="gge3223" stroke-width="1" fill="none" stroke-linecap="round" d="M110 275v-7"/><path id="gge3224" stroke="#800" stroke-width="1" fill="none" d="M102.8 266h14.7v1.8h-14.7z"/><path id="gge3225" stroke="#800" stroke-width="1" fill="none" d="M102.8 261h14.7v1.8h-14.7z"/><g id="gge3226"><circle class="pindot" cx="110" cy="245" r="2" fill="none"/><path d="M110 245v10" fill="none" stroke="#800"/></g><g id="gge3233"><circle class="pindot" cx="110" cy="285" r="2" fill="none"/><path d="M110 285v-10" fill="none" stroke="#800"/></g></g><g id="ggecc82bf2c2e22e605"><text x="345.71" y="243.57" fill="navy" font-family="Arial" font-size="7pt" id="gge3268">10n</text><path stroke="#800" id="gge3272" stroke-width="1" fill="none" stroke-linecap="round" d="M345 225h6"/><path stroke="#800" id="gge3273" stroke-width="1" fill="none" stroke-linecap="round" d="M365 225h-7"/><path id="gge3274" stroke="#800" stroke-width="1" fill="none" d="M356 217.5h1.8v14.7H356z"/><path id="gge3275" stroke="#800" stroke-width="1" fill="none" d="M351 217.5h1.8v14.7H351z"/><g id="gge3276"><circle class="pindot" cx="335" cy="225" r="2" fill="none"/><path d="M335 225h10" fill="none" stroke="#800"/></g><g id="gge3283"><circle class="pindot" cx="375" cy="225" r="2" fill="none"/><path d="M375 225h-10" fill="none" stroke="#800"/></g></g><path stroke="#080" id="gge3318" stroke-width="1" fill="none" stroke-linecap="round" d="M185 100v95h50v-60h25"/><g id="gge3331"><circle class="pindot" cx="185" cy="100" r="2" fill="none"/><path stroke="#000" id="gge3334" stroke-width="1" fill="transparent" stroke-linecap="round" d="M185 90v10"/><path stroke="#000" id="gge3335" stroke-width="1" fill="transparent" stroke-linecap="round" d="M194 90h-18"/><path stroke="#000" id="gge3336" stroke-width="1" fill="transparent" stroke-linecap="round" d="M191 88h-12"/><path stroke="#000" id="gge3337" stroke-width="1" fill="transparent" stroke-linecap="round" d="M188 86h-6"/><path stroke="#000" id="gge3338" stroke-width="1" fill="transparent" stroke-linecap="round" d="M186 84h-2"/></g><path stroke="#080" id="gge3365" stroke-width="1" fill="none" stroke-linecap="round" d="M110 225v20"/><g id="gge3367"><circle class="pindot" cx="110" cy="325" r="2" fill="none"/><path stroke="#000" id="gge3370" stroke-width="1" fill="transparent" stroke-linecap="round" d="M110 335v-10"/><path stroke="#000" id="gge3371" stroke-width="1" fill="transparent" stroke-linecap="round" d="M101 335h18"/><path stroke="#000" id="gge3372" stroke-width="1" fill="transparent" stroke-linecap="round" d="M104 337h12"/><path stroke="#000" id="gge3373" stroke-width="1" fill="transparent" stroke-linecap="round" d="M107 339h6"/><path stroke="#000" id="gge3374" stroke-width="1" fill="transparent" stroke-linecap="round" d="M109 341h2"/></g><path stroke="#080" id="gge3384" stroke-width="1" fill="none" stroke-linecap="round" d="M110 285v40"/><path stroke="#080" id="gge3385" stroke-width="1" fill="none" stroke-linecap="round" d="M235 205h-85v25h-40"/><g id="gge16cbebb8866e1842"><text x="507" y="320.93" fill="navy" font-family="Arial" font-size="7pt" id="gge3390">SIG</text><rect id="gge3394" x="495" y="305" rx="2" ry="2" width="10" height="20" stroke="#800" stroke-width="1" fill="none"/><g id="gge3395"><text x="503" y="310" font-family="Verdana" font-size="7pt" fill="#00F" text-anchor="end" transform="rotate(270 503 310)">1</text><circle class="pindot" cx="500" cy="295" r="2" fill="none"/><path d="M500 295v10" fill="none" stroke="#800"/></g></g><path stroke="#080" id="gge3421" stroke-width="1" fill="none" stroke-linecap="round" d="M245 305h-70V205"/><path stroke="#080" id="gge3423" stroke-width="1" fill="none" stroke-linecap="round" d="M245 345v15"/><path stroke="#080" id="gge3438" stroke-width="1" fill="none" stroke-linecap="round" d="M335 215h90v195H135V240h-25"/><g id="gge3440"><circle class="pindot" cx="375" cy="260" r="2" fill="none"/><path stroke="#000" id="gge3443" stroke-width="1" fill="transparent" stroke-linecap="round" d="M375 270v-10"/><path stroke="#000" id="gge3444" stroke-width="1" fill="transparent" stroke-linecap="round" d="M366 270h18"/><path stroke="#000" id="gge3445" stroke-width="1" fill="transparent" stroke-linecap="round" d="M369 272h12"/><path stroke="#000" id="gge3446" stroke-width="1" fill="transparent" stroke-linecap="round" d="M372 274h6"/><path stroke="#000" id="gge3447" stroke-width="1" fill="transparent" stroke-linecap="round" d="M374 276h2"/></g><path stroke="#080" id="gge3456" stroke-width="1" fill="none" stroke-linecap="round" d="M375 225v35"/><text x="215" y="437.14" fill="#00F" font-family="Verdana" font-size="12" id="gge3605">Frequency Generator</text><g id="gge48f0ae2437312dae"><text x="756" y="228" fill="navy" font-family="Arial" font-size="7pt" id="gge5034">A4988</text><rect id="gge5038" x="680" y="155" rx="3" ry="3" width="190" height="180" stroke="#800" stroke-width="1" fill="#FFF"/><g id="gge5039"><text x="682" y="178" font-family="start" font-size="7pt" fill="#00F">EN</text><text x="675" y="174" font-family="Verdana" font-size="7pt" fill="#00F" text-anchor="end">1</text><circle class="pindot" cx="660" cy="175" r="2" fill="none"/><path d="M660 175h20" fill="none" stroke="#800"/></g><g id="gge5046"><text x="682" y="198" font-family="Verdana" font-size="7pt" fill="#00F">MS1</text><text x="675" y="194" font-family="Verdana" font-size="7pt" fill="#00F" text-anchor="end">2</text><circle class="pindot" cx="660" cy="195" r="2" fill="none"/><path d="M660 195h20" fill="none" stroke="#800"/></g><g id="gge5053"><text x="682" y="218" font-family="Verdana" font-size="7pt" fill="#00F">MS2</text><text x="675" y="214" font-family="Verdana" font-size="7pt" fill="#00F" text-anchor="end">3</text><circle class="pindot" cx="660" cy="215" r="2" fill="none"/><path d="M660 215h20" fill="none" stroke="#800"/></g><g id="gge5060"><text x="682" y="238" font-family="Verdana" font-size="7pt" fill="#00F">MS3</text><text x="675" y="234" font-family="Verdana" font-size="7pt" fill="#00F" text-anchor="end">4</text><circle class="pindot" cx="660" cy="235" r="2" fill="none"/><path d="M660 235h20" fill="none" stroke="#800"/></g><g id="gge5067"><text x="682" y="258" font-family="start" font-size="7pt" fill="#00F">RST</text><text x="675" y="252.5" font-family="Verdana" font-size="7pt" fill="#00F" text-anchor="end">5</text><circle class="pindot" cx="660" cy="255" r="2" fill="none"/><path d="M660 255h20" fill="none" stroke="#800"/></g><g id="gge5074"><text x="682" y="278" font-family="start" font-size="7pt" fill="#00F">SLP</text><text x="675" y="274" font-family="Verdana" font-size="7pt" fill="#00F" text-anchor="end">6</text><circle class="pindot" cx="660" cy="275" r="2" fill="none"/><path d="M660 275h20" fill="none" stroke="#800"/></g><g id="gge5081"><text x="682" y="298" font-family="Verdana" font-size="7pt" fill="#00F">STEP</text><text x="675" y="294" font-family="Verdana" font-size="7pt" fill="#00F" text-anchor="end">7</text><circle class="pindot" cx="660" cy="295" r="2" fill="none"/><path d="M660 295h20" fill="none" stroke="#800"/></g><g id="gge5088"><text x="682" y="318" font-family="Verdana" font-size="7pt" fill="#00F">DIR</text><text x="675" y="314" font-family="Verdana" font-size="7pt" fill="#00F" text-anchor="end">8</text><circle class="pindot" cx="660" cy="315" r="2" fill="none"/><path d="M660 315h20" fill="none" stroke="#800"/></g><g id="gge5095"><text x="868" y="318" font-family="Verdana" font-size="7pt" fill="#00F" text-anchor="end">GND</text><text x="875" y="314" font-family="Verdana" font-size="7pt" fill="#00F">9</text><circle class="pindot" cx="890" cy="315" r="2" fill="none"/><path d="M890 315h-20" fill="none" stroke="#800"/></g><g id="gge5102"><text x="868" y="298" font-family="Verdana" font-size="7pt" fill="#00F" text-anchor="end">VDD</text><text x="875" y="294" font-family="Verdana" font-size="7pt" fill="#00F">10</text><circle class="pindot" cx="890" cy="295" r="2" fill="none"/><path d="M890 295h-20" fill="none" stroke="#800"/></g><g id="gge5109"><text x="868" y="278" font-family="Verdana" font-size="7pt" fill="#00F" text-anchor="end">1B</text><text x="875" y="274" font-family="Verdana" font-size="7pt" fill="#00F">11</text><circle class="pindot" cx="890" cy="275" r="2" fill="none"/><path d="M890 275h-20" fill="none" stroke="#800"/></g><g id="gge5116"><text x="868" y="258" font-family="Verdana" font-size="7pt" fill="#00F" text-anchor="end">1A</text><text x="875" y="254" font-family="Verdana" font-size="7pt" fill="#00F">12</text><circle class="pindot" cx="890" cy="255" r="2" fill="none"/><path d="M890 255h-20" fill="none" stroke="#800"/></g><g id="gge5123"><text x="868" y="238" font-family="Verdana" font-size="7pt" fill="#00F" text-anchor="end">2A</text><text x="875" y="234" font-family="Verdana" font-size="7pt" fill="#00F">13</text><circle class="pindot" cx="890" cy="235" r="2" fill="none"/><path d="M890 235h-20" fill="none" stroke="#800"/></g><g id="gge5130"><text x="868" y="218" font-family="Verdana" font-size="7pt" fill="#00F" text-anchor="end">2B</text><text x="875" y="214" font-family="Verdana" font-size="7pt" fill="#00F">14</text><circle class="pindot" cx="890" cy="215" r="2" fill="none"/><path d="M890 215h-20" fill="none" stroke="#800"/></g><g id="gge5137"><text x="868" y="198" font-family="Verdana" font-size="7pt" fill="#00F" text-anchor="end">GND</text><text x="875" y="194" font-family="Verdana" font-size="7pt" fill="#00F">15</text><circle class="pindot" cx="890" cy="195" r="2" fill="none"/><path d="M890 195h-20" fill="none" stroke="#800"/></g><g id="gge5144"><text x="868" y="178" font-family="Verdana" font-size="7pt" fill="#00F" text-anchor="end">VMOT</text><text x="875" y="174" font-family="Verdana" font-size="7pt" fill="#00F">16</text><circle class="pindot" cx="890" cy="175" r="2" fill="none"/><path d="M890 175h-20" fill="none" stroke="#800"/></g><text x="712.08" y="239.56" fill="#00F" font-family="Verdana" font-size="5.5pt" id="gge5151">A4988 Stepper Motor Driver Carrier</text></g><g id="gge5282"><circle class="pindot" cx="630" cy="125" r="2" fill="none"/><path stroke="#000" id="gge5285" stroke-width="1" fill="transparent" stroke-linecap="round" d="M630 115v10"/><path stroke="#000" id="gge5286" stroke-width="1" fill="transparent" stroke-linecap="round" d="M639 115h-18"/><path stroke="#000" id="gge5287" stroke-width="1" fill="transparent" stroke-linecap="round" d="M636 113h-12"/><path stroke="#000" id="gge5288" stroke-width="1" fill="transparent" stroke-linecap="round" d="M633 111h-6"/><path stroke="#000" id="gge5289" stroke-width="1" fill="transparent" stroke-linecap="round" d="M631 109h-2"/></g><path stroke="#080" id="gge5295" stroke-width="1" fill="none" stroke-linecap="round" d="M660 215h-40v-20"/><path stroke="#080" id="gge5297" stroke-width="1" fill="none" stroke-linecap="round" d="M660 235h-40v-20"/><path stroke="#080" id="gge5299" stroke-width="1" fill="none" stroke-linecap="round" d="M660 255v20"/><path stroke="#080" id="gge5309" stroke-width="1" fill="none" stroke-linecap="round" d="M620 175h40"/><path stroke="#080" id="gge5312" stroke-width="1" fill="none" stroke-linecap="round" d="M630 145v-20"/><path stroke="#080" id="gge5315" stroke-width="1" fill="none" stroke-linecap="round" d="M650 345v-30h10"/><path stroke="#080" id="gge5316" stroke-width="1" fill="none" stroke-linecap="round" d="M620 335V235"/><g id="gge5318"><circle class="pindot" cx="620" cy="380" r="2" fill="none"/><path stroke="#000" id="gge5321" stroke-width="1" fill="transparent" stroke-linecap="round" d="M620 390v-10"/><path stroke="#000" id="gge5322" stroke-width="1" fill="transparent" stroke-linecap="round" d="M611 390h18"/><path stroke="#000" id="gge5323" stroke-width="1" fill="transparent" stroke-linecap="round" d="M614 392h12"/><path stroke="#000" id="gge5324" stroke-width="1" fill="transparent" stroke-linecap="round" d="M617 394h6"/><path stroke="#000" id="gge5325" stroke-width="1" fill="transparent" stroke-linecap="round" d="M619 396h2"/></g><path stroke="#080" id="gge5334" stroke-width="1" fill="none" stroke-linecap="round" d="M620 355v25"/><g id="gge51bfc0e5166a1c40"><text x="995.71" y="228.57" fill="navy" font-family="Arial" font-size="7pt" id="gge5437">B</text><path stroke="#8D2323" id="gge5441" stroke-width="1" fill="none" stroke-linecap="round" d="M990 205h-20"/><path stroke="#8D2323" id="gge5442" stroke-width="1" fill="none" stroke-linecap="round" d="M970 205v40"/><path stroke="#8D2323" id="gge5443" stroke-width="1" fill="none" stroke-linecap="round" d="M970 245h20"/><path stroke="#8D2323" id="gge5444" stroke-width="1" fill="none" stroke-linecap="round" d="M990 245v-40"/><g id="gge5445"><text x="964" y="214" font-family="Verdana" font-size="7pt" fill="#8D2323" text-anchor="end">1</text><circle class="pindot" cx="960" cy="215" r="2" fill="none"/><path d="M960 215h10" fill="none" stroke="#8D2323"/></g><g id="gge5452"><text x="964" y="234" font-family="Verdana" font-size="7pt" fill="#8D2323" text-anchor="end">2</text><circle class="pindot" cx="960" cy="235" r="2" fill="none"/><path d="M960 235h10" fill="none" stroke="#8D2323"/></g></g><g id="gge1fb9863844ab5169"><text x="995.71" y="263.57" fill="navy" font-family="Arial" font-size="7pt" id="gge5462">A</text><path stroke="#8D2323" id="gge5466" stroke-width="1" fill="none" stroke-linecap="round" d="M990 245h-20"/><path stroke="#8D2323" id="gge5467" stroke-width="1" fill="none" stroke-linecap="round" d="M970 245v40"/><path stroke="#8D2323" id="gge5468" stroke-width="1" fill="none" stroke-linecap="round" d="M970 285h20"/><path stroke="#8D2323" id="gge5469" stroke-width="1" fill="none" stroke-linecap="round" d="M990 285v-40"/><g id="gge5470"><text x="964" y="254" font-family="Verdana" font-size="7pt" fill="#8D2323" text-anchor="end">1</text><circle class="pindot" cx="960" cy="255" r="2" fill="none"/><path d="M960 255h10" fill="none" stroke="#8D2323"/></g><g id="gge5477"><text x="964" y="274" font-family="Verdana" font-size="7pt" fill="#8D2323" text-anchor="end">2</text><circle class="pindot" cx="960" cy="275" r="2" fill="none"/><path d="M960 275h10" fill="none" stroke="#8D2323"/></g></g><path stroke="#080" id="gge5509" stroke-width="1" fill="none" stroke-linecap="round" d="M890 215h70"/><path stroke="#080" id="gge5510" stroke-width="1" fill="none" stroke-linecap="round" d="M890 235h70"/><path stroke="#080" id="gge5512" stroke-width="1" fill="none" stroke-linecap="round" d="M890 255h70"/><path stroke="#080" id="gge5513" stroke-width="1" fill="none" stroke-linecap="round" d="M890 275h70"/><g id="gge5514"><circle class="pindot" cx="890" cy="375" r="2" fill="none"/><path stroke="#000" id="gge5517" stroke-width="1" fill="transparent" stroke-linecap="round" d="M890 385v-10"/><path stroke="#000" id="gge5518" stroke-width="1" fill="transparent" stroke-linecap="round" d="M881 385h18"/><path stroke="#000" id="gge5519" stroke-width="1" fill="transparent" stroke-linecap="round" d="M884 387h12"/><path stroke="#000" id="gge5520" stroke-width="1" fill="transparent" stroke-linecap="round" d="M887 389h6"/><path stroke="#000" id="gge5521" stroke-width="1" fill="transparent" stroke-linecap="round" d="M889 391h2"/></g><path stroke="#080" id="gge5536" stroke-width="1" fill="none" stroke-linecap="round" d="M890 315v60"/><g id="gge5544"><circle class="pindot" cx="930" cy="115" r="2" fill="none"/><path stroke="#000" id="gge5547" stroke-width="1" fill="transparent" stroke-linecap="round" d="M930 105v10"/><path stroke="#000" id="gge5548" stroke-width="1" fill="transparent" stroke-linecap="round" d="M939 105h-18"/><path stroke="#000" id="gge5549" stroke-width="1" fill="transparent" stroke-linecap="round" d="M936 103h-12"/><path stroke="#000" id="gge5550" stroke-width="1" fill="transparent" stroke-linecap="round" d="M933 101h-6"/><path stroke="#000" id="gge5551" stroke-width="1" fill="transparent" stroke-linecap="round" d="M931 99h-2"/></g><path stroke="#080" id="gge5561" stroke-width="1" fill="none" stroke-linecap="round" d="M890 195h40v-80"/><g id="gge3a68d3ddabf48558"><text x="903.21" y="129.5" fill="navy" font-family="Arial" font-size="7pt" id="gge5564">47u</text><path stroke="#8D2323" id="gge5568" stroke-width="1" fill="none" stroke-linecap="round" d="M900 140h6"/><path stroke="#8D2323" id="gge5569" stroke-width="1" fill="none" stroke-linecap="round" d="M920 140h-7"/><path id="gge5570" stroke="#8D2323" stroke-width="1" fill="#8D2323" d="M911 132.5h1.8v14.7H911z"/><path id="gge5571" stroke="#8D2323" stroke-width="1" fill="none" d="M906 132.5h1.8v14.7H906z"/><g id="gge5572"><circle class="pindot" cx="890" cy="140" r="2" fill="none"/><path d="M890 140h10" fill="none" stroke="#8D2323"/></g><g id="gge5579"><circle class="pindot" cx="930" cy="140" r="2" fill="none"/><path d="M930 140h-10" fill="none" stroke="#8D2323"/></g><path id="gge5586" stroke="#8D2323" stroke-width="1" fill="#8D2323" d="M902 143h.1v4h-.1z"/><path id="gge5587" stroke="#8D2323" stroke-width="1" fill="#8D2323" d="M900 144.9h4v.1h-4z"/></g><text x="755" y="367.14" fill="#00F" font-family="Verdana" font-size="12" id="gge5618">Driver</text><text x="535" y="617.14" fill="#00F" font-family="Verdana" font-size="12" id="gge6224">Power Delivery</text><path stroke="#080" id="gge6235" stroke-width="1" fill="none" stroke-linecap="round" d="M235 215h-20v80h60v85"/><path stroke="#080" id="gge6240" stroke-width="1" fill="none" stroke-linecap="round" d="M660 295H275"/><path stroke="#080" id="gge6250" stroke-width="1" fill="none" stroke-linecap="round" d="M535 560h-65V345h110V195h80"/><path stroke="#080" id="gge6256" stroke-width="1" fill="none" stroke-linecap="round" d="M610 145h-30v50"/><path stroke="#080" id="gge6258" stroke-width="1" fill="none" stroke-linecap="round" d="M890 295h45v200H470"/><path stroke="#080" id="gge6260" stroke-width="1" fill="none" stroke-linecap="round" d="M470 345V195H335v-60h-35"/><path stroke="#080" id="gge6264" stroke-width="1" fill="none" stroke-linecap="round" d="M235 225v45h90v75h145"/><path stroke="#080" id="gge6265" stroke-width="1" fill="none" stroke-linecap="round" d="M110 185v-65H85v375h385"/><path stroke="#080" id="gge6266" stroke-width="1" fill="none" stroke-linecap="round" d="M615 560h420V70H890v105"/><g id="gge6271"><circle class="pindot" cx="575" cy="530" r="2" fill="none"/><path stroke="#000" id="gge6274" stroke-width="1" fill="transparent" stroke-linecap="round" d="M575 520v10"/><path stroke="#000" id="gge6275" stroke-width="1" fill="transparent" stroke-linecap="round" d="M584 520h-18"/><path stroke="#000" id="gge6276" stroke-width="1" fill="transparent" stroke-linecap="round" d="M581 518h-12"/><path stroke="#000" id="gge6277" stroke-width="1" fill="transparent" stroke-linecap="round" d="M578 516h-6"/><path stroke="#000" id="gge6278" stroke-width="1" fill="transparent" stroke-linecap="round" d="M576 514h-2"/></g><g id="ggebd3ee0abdb58119f"><text x="687" y="616.36" fill="navy" font-family="Arial" font-size="7pt" id="gge6609">12V IN</text><path stroke="#8D2323" id="gge6613" stroke-width="1" fill="none" stroke-linecap="round" d="M685 620v-20"/><path stroke="#8D2323" id="gge6614" stroke-width="1" fill="none" stroke-linecap="round" d="M685 600h-40"/><path stroke="#8D2323" id="gge6615" stroke-width="1" fill="none" stroke-linecap="round" d="M645 600v20"/><path stroke="#8D2323" id="gge6616" stroke-width="1" fill="none" stroke-linecap="round" d="M645 620h40"/><g id="gge6617"><text x="674" y="594" font-family="Verdana" font-size="7pt" fill="#8D2323" transform="rotate(270 674 594)">1</text><circle class="pindot" cx="675" cy="590" r="2" fill="none"/><path d="M675 590v10" fill="none" stroke="#8D2323"/></g><g id="gge6624"><text x="654" y="594" font-family="Verdana" font-size="7pt" fill="#8D2323" transform="rotate(270 654 594)">2</text><circle class="pindot" cx="655" cy="590" r="2" fill="none"/><path d="M655 590v10" fill="none" stroke="#8D2323"/></g></g><g id="gge66797bcd97f4f6c2"><text x="569.03" y="587.37" fill="navy" font-family="Arial" font-size="7pt" id="gge8571">MP1584EN</text><path stroke="#8D2323" id="gge8575" stroke-width="2" fill="none" stroke-linecap="round" d="M605 540h-60"/><path stroke="#8D2323" id="gge8576" stroke-width="2" fill="none" stroke-linecap="round" d="M545 540v30"/><path stroke="#8D2323" id="gge8577" stroke-width="2" fill="none" stroke-linecap="round" d="M545 570h60"/><path stroke="#8D2323" id="gge8578" stroke-width="2" fill="none" stroke-linecap="round" d="M605 570v-30"/><g id="gge8579"><text x="602" y="563" font-family="Verdana" font-size="7pt" fill="#8D2323" text-anchor="end">VI</text><text x="611" y="559" font-family="Verdana" font-size="7pt" fill="#8D2323">1</text><circle class="pindot" cx="615" cy="560" r="2" fill="none"/><path d="M615 560h-10" fill="none" stroke="#8D2323"/></g><g id="gge8586"><text x="574" y="534" font-family="Verdana" font-size="7pt" fill="#8D2323" transform="rotate(270 574 534)">3</text><circle class="pindot" cx="575" cy="530" r="2" fill="none"/><path d="M575 530v10" fill="none" stroke="#8D2323"/></g><g id="gge8593"><text x="548" y="563" font-family="Verdana" font-size="7pt" fill="#8D2323">VO</text><text x="539" y="559" font-family="Verdana" font-size="7pt" fill="#8D2323" text-anchor="end">2</text><circle class="pindot" cx="535" cy="560" r="2" fill="none"/><path d="M535 560h10" fill="none" stroke="#8D2323"/></g><text x="570" y="546.7" font-family="times New Roman" font-size="6" id="gge8600">GND</text></g><g id="gge8658"><circle class="pindot" cx="675" cy="590" r="2" fill="none"/><path stroke="#000" id="gge8662" stroke-width="1" fill="transparent" stroke-linecap="round" d="M675 580v10"/><path stroke="#000" id="gge8663" stroke-width="1" fill="transparent" stroke-linecap="round" d="M684 580h-18"/><path stroke="#000" id="gge8664" stroke-width="1" fill="transparent" stroke-linecap="round" d="M681 578h-12"/><path stroke="#000" id="gge8665" stroke-width="1" fill="transparent" stroke-linecap="round" d="M678 576h-6"/><path stroke="#000" id="gge8666" stroke-width="1" fill="transparent" stroke-linecap="round" d="M676 574h-2"/></g><path stroke="#080" id="gge8671" stroke-width="1" fill="none" stroke-linecap="round" d="M655 590v-30"/><g id="gge8672"><circle class="pindot" cx="655" cy="560" r="2" fill="none"/><circle cx="655" cy="560" r="2.5" fill="#C00"/></g><g id="gge6251"><circle class="pindot" cx="620" cy="195" r="2" fill="none"/><circle cx="620" cy="195" r="2.5" fill="#C00"/></g><g id="gge6257"><circle class="pindot" cx="580" cy="195" r="2" fill="none"/><circle cx="580" cy="195" r="2.5" fill="#C00"/></g><g id="gge6259"><circle class="pindot" cx="470" cy="495" r="2" fill="none"/><circle cx="470" cy="495" r="2.5" fill="#C00"/></g><g id="gge6262"><circle class="pindot" cx="470" cy="345" r="2" fill="none"/><circle cx="470" cy="345" r="2.5" fill="#C00"/></g><g id="gge6241"><circle class="pindot" cx="275" cy="295" r="2" fill="none"/><circle cx="275" cy="295" r="2.5" fill="#C00"/></g><g id="gge5616"><circle class="pindot" cx="930" cy="140" r="2" fill="none"/><circle cx="930" cy="140" r="2.5" fill="#C00"/></g><g id="gge5298"><circle class="pindot" cx="620" cy="215" r="2" fill="none"/><circle cx="620" cy="215" r="2.5" fill="#C00"/></g><g id="gge3352"><circle class="pindot" cx="235" cy="195" r="2" fill="none"/><circle cx="235" cy="195" r="2.5" fill="#C00"/></g><g id="gge3386"><circle class="pindot" cx="110" cy="230" r="2" fill="none"/><circle cx="110" cy="230" r="2.5" fill="#C00"/></g><g id="gge3422"><circle class="pindot" cx="175" cy="205" r="2" fill="none"/><circle cx="175" cy="205" r="2.5" fill="#C00"/></g><g id="gge3439"><circle class="pindot" cx="110" cy="240" r="2" fill="none"/><circle cx="110" cy="240" r="2.5" fill="#C00"/></g><g id="gge5317"><circle class="pindot" cx="620" cy="235" r="2" fill="none"/><circle cx="620" cy="235" r="2.5" fill="#C00"/></g><g id="gge6242"><circle class="pindot" cx="500" cy="295" r="2" fill="none"/><circle cx="500" cy="295" r="2.5" fill="#C00"/></g><g id="gge6298"><circle class="pindot" cx="890" cy="140" r="2" fill="none"/><circle cx="890" cy="140" r="2.5" fill="#C00"/></g><g id="gge6263"><circle class="pindot" cx="335" cy="195" r="2" fill="none"/><circle cx="335" cy="195" r="2.5" fill="#C00"/></g></g></svg>
